<svg width="24" height="24" viewBox="0 0 24 24" fill="none" xmlns="http://www.w3.org/2000/svg">
<g id="Iconly/Light/Edit Square">
<g id="Edit Square">
<path id="Stroke 1" d="M11.4922 2.78894H7.75324C4.67824 2.78894 2.75024 4.96594 2.75024 8.04794V16.3619C2.75024 19.4439 4.66924 21.6209 7.75324 21.6209H16.5772C19.6622 21.6209 21.5812 19.4439 21.5812 16.3619V12.3339" stroke="white" stroke-width="1.5" stroke-linecap="round" stroke-linejoin="round"/>
<path id="Stroke 3" fill-rule="evenodd" clip-rule="evenodd" d="M8.82775 10.9209L16.3008 3.44787C17.2318 2.51787 18.7408 2.51787 19.6718 3.44787L20.8888 4.66487C21.8198 5.59587 21.8198 7.10587 20.8888 8.03587L13.3798 15.5449C12.9728 15.9519 12.4208 16.1809 11.8448 16.1809H8.09875L8.19275 12.4009C8.20675 11.8449 8.43375 11.3149 8.82775 10.9209Z" stroke="white" stroke-width="1.5" stroke-linecap="round" stroke-linejoin="round"/>
<path id="Stroke 5" d="M15.1652 4.60242L19.7312 9.16842" stroke="white" stroke-width="1.5" stroke-linecap="round" stroke-linejoin="round"/>
</g>
</g>
</svg>
