<svg width="319" height="319" viewBox="0 0 319 319" fill="none" xmlns="http://www.w3.org/2000/svg">
<path d="M238.924 238.924C282.909 194.94 282.909 123.626 238.924 79.6415C194.94 35.6568 123.626 35.6568 79.6414 79.6415C35.6567 123.626 35.6567 194.94 79.6414 238.924C123.626 282.909 194.94 282.909 238.924 238.924Z" fill="#EAE5DF"/>
<path d="M87.0957 227.673L97.8257 270.393" stroke="black" stroke-miterlimit="10"/>
<path d="M138.096 143.803L103.626 149.033C103.626 149.033 100.196 150.293 86.6258 149.583C73.0558 148.873 61.7058 156.323 57.7058 167.933C56.2058 172.263 53.2758 179.683 50.2158 187.453C53.9547 201.912 60.5399 215.48 69.5858 227.363C73.279 227.754 76.9925 227.921 80.7058 227.863C80.7058 227.863 82.7058 235.323 84.9558 243.863C105.047 261.567 130.81 271.499 157.586 271.863C166.393 268.996 174.913 265.313 183.036 260.863L179.036 216.583C179.036 216.583 190.366 213.203 200.366 201.863C202.556 199.393 178.366 158.053 171.366 149.583C164.366 141.113 138.096 143.803 138.096 143.803Z" fill="#7E7B44"/>
<path d="M153.192 213.165C161.165 201.995 158.574 186.476 147.404 178.502C136.233 170.528 120.714 173.12 112.74 184.29C104.767 195.461 107.358 210.98 118.528 218.953C129.699 226.927 145.218 224.336 153.192 213.165Z" fill="#EFD79A"/>
<path d="M125.396 189.023L126.866 197.853" stroke="#7E7B44" stroke-linecap="round" stroke-linejoin="round"/>
<path d="M136.966 187.083L138.446 195.923" stroke="#7E7B44" stroke-linecap="round" stroke-linejoin="round"/>
<path d="M148.256 194.293C148.845 198.385 147.809 202.545 145.37 205.883C142.93 209.221 139.281 211.471 135.203 212.152C131.126 212.833 126.943 211.89 123.552 209.526C120.16 207.162 117.829 203.565 117.056 199.503" stroke="#7E7B44" stroke-linecap="round" stroke-linejoin="round"/>
<path d="M99.6963 149.634C99.6963 149.634 115.626 165.554 130.256 161.684C142.876 158.354 140.356 143.624 140.356 143.624" stroke="#514D27" stroke-width="0.75" stroke-linecap="round" stroke-linejoin="round"/>
<path d="M96.1963 119.744C96.1963 119.744 102.686 129.034 103.626 149.034C103.626 149.034 117.726 160.034 127.626 158.534C137.526 157.034 138.056 143.784 138.056 143.784C133.256 136.92 130.286 128.945 129.426 120.614L96.1963 119.744Z" fill="#FFB48C"/>
<path d="M121.066 132.304C125.906 131.544 128.916 129.814 130.796 127.954C130.163 125.552 129.718 123.105 129.466 120.634L96.1963 119.744C97.3827 121.633 98.3617 123.644 99.1163 125.744C104.636 129.234 113.266 133.524 121.066 132.304Z" fill="#EF8D6F"/>
<path d="M73.8762 105.183C73.8762 105.183 59.2562 73.2535 56.3162 66.4035C53.3762 59.5535 63.1262 55.3035 63.1262 55.3035C63.1262 55.3035 60.0262 46.3035 71.5762 35.0535C83.1262 23.8035 106.376 29.0535 115.626 19.3035C115.626 19.3035 114.876 27.3035 111.376 31.8035C111.376 31.8035 129.876 21.5535 148.376 35.3035C148.376 35.3035 148.376 47.3035 143.626 56.0535C143.626 56.0535 148.376 52.3035 150.876 42.0535C150.876 42.0535 157.876 67.4635 140.876 78.8835L73.8762 105.183Z" fill="#D86224"/>
<path d="M107.426 31.8036C107.426 31.8036 123.876 17.3036 148.626 31.8036" stroke="#D86224" stroke-width="0.5" stroke-linecap="round" stroke-linejoin="round"/>
<path d="M148.376 35.3035C148.376 35.3035 141.876 45.3035 123.376 45.8035" stroke="#FF8326" stroke-width="0.5" stroke-linecap="round" stroke-linejoin="round"/>
<path d="M117.646 40.5535C125.339 42.7774 133.469 43.0319 141.286 41.2935" stroke="#FF8326" stroke-width="0.5" stroke-linecap="round" stroke-linejoin="round"/>
<path d="M100.246 40.0335C124.016 33.5535 136.086 46.7735 142.246 68.3735C148.406 89.9735 148.306 114.644 131.036 120.154C113.766 125.664 89.2362 124.744 78.7362 102.714C68.2362 80.6835 64.8262 49.6735 100.246 40.0335Z" fill="#FFB48C"/>
<path d="M130.416 61.8336C126.718 61.2913 123.137 60.1283 119.826 58.3936C122.826 54.4136 130.416 56.8136 130.416 61.8336Z" fill="#D86224"/>
<path d="M107.426 60.1736C105.736 61.9336 103.936 63.6336 102.426 65.5336C100.646 67.2036 99.5458 69.5336 97.8558 71.3036C97.3253 69.9565 97.1679 68.4913 97.4002 67.0623C97.6325 65.6332 98.2459 64.2933 99.1758 63.1836C100.956 60.9136 104.506 59.0336 107.426 60.1736Z" fill="#D86224"/>
<path d="M128.636 103.183C128.636 103.183 116.996 109.033 107.826 100.733" stroke="#EF8D6F" stroke-width="0.75" stroke-linecap="round" stroke-linejoin="round"/>
<path d="M125.736 77.0334C126.146 78.7434 127.346 79.9234 128.406 79.6634C129.466 79.4034 129.996 77.8234 129.586 76.1134C129.176 74.4034 127.986 73.2234 126.916 73.4834C125.846 73.7434 125.326 75.3734 125.736 77.0334Z" fill="#3A130E"/>
<path d="M103.766 82.4735C104.176 84.1835 105.376 85.3535 106.436 85.1035C107.496 84.8535 108.026 83.2535 107.616 81.5435C107.206 79.8335 106.016 78.6635 104.946 78.9135C103.876 79.1635 103.356 80.7635 103.766 82.4735Z" fill="#3A130E"/>
<path d="M95.4117 106.042C102.514 104.966 107.555 99.3643 106.671 93.5303C105.787 87.6964 99.3131 83.8394 92.2107 84.9155C85.1082 85.9916 80.0672 91.5934 80.9511 97.4273C81.835 103.261 88.3092 107.118 95.4117 106.042Z" fill="#F27F52"/>
<path d="M141.636 73.4735C142.259 73.3809 142.887 73.3275 143.516 73.3135C145.201 80.1837 146.008 87.2401 145.916 94.3135C145.536 94.3935 145.156 94.4735 144.766 94.5235C137.676 95.5835 131.216 91.7035 130.356 85.8835C129.496 80.0635 134.546 74.5235 141.636 73.4735Z" fill="#F27F52"/>
<path d="M117.646 66.4036C117.646 66.4036 117.926 76.7236 123.646 85.3436C123.646 85.3436 132.806 83.2636 133.766 84.9136C134.726 86.5636 128.766 96.9136 128.766 96.9136" fill="#FFB48C"/>
<path d="M117.646 66.4036C117.646 66.4036 117.926 76.7236 123.646 85.3436C123.646 85.3436 132.806 83.2636 133.766 84.9136C134.726 86.5636 128.766 96.9136 128.766 96.9136" stroke="#EF8D6F" stroke-width="0.75" stroke-linecap="round" stroke-linejoin="round"/>
<path d="M82.3762 59.9435C95.8762 60.1735 111.876 44.0535 111.376 31.8035C114.876 27.3035 115.626 19.3035 115.626 19.3035C106.376 29.0535 83.1162 23.8035 71.6262 35.0535C60.1362 46.3035 63.1262 55.3035 63.1262 55.3035C63.1262 55.3035 53.3762 59.5535 56.3162 66.4035C58.2162 70.8235 64.9862 85.7035 69.5462 95.6935C92.0262 87.2135 82.3762 59.9435 82.3762 59.9435Z" fill="#FF8326"/>
<path d="M62.8262 50.7835C62.8262 50.7835 67.2962 39.4735 83.8262 38.3935C100.356 37.3135 106.366 35.8035 111.366 31.8035" stroke="#D86224" stroke-width="0.5" stroke-linecap="round" stroke-linejoin="round"/>
<path d="M115.626 19.3035C112.679 24.1851 108.723 28.3812 104.024 31.6112C99.3243 34.8412 93.9895 37.0308 88.376 38.0335" stroke="#D86224" stroke-width="0.5" stroke-linecap="round" stroke-linejoin="round"/>
<path d="M56.126 61.8335C56.126 61.8335 63.576 76.4235 84.226 76.6135" stroke="#D86224" stroke-width="0.5" stroke-linecap="round" stroke-linejoin="round"/>
<path d="M83.8261 110.703L74.8261 93.1634C74.8261 93.1634 66.7461 82.1634 58.0461 88.8534C50.3861 94.7834 69.4461 120.853 83.8261 110.703Z" fill="#FFB48C"/>
<path d="M74.4764 92.6734C74.7264 92.9734 74.8664 93.1634 74.8664 93.1634L83.8664 110.703C74.8664 117.053 64.0264 109.223 59.0664 101.013C62.3364 93.7934 69.2164 92.4734 74.4764 92.6734Z" fill="#EF8D6F"/>
<path d="M153.716 143.624C153.716 143.624 173.026 176.624 179.026 216.624C179.026 216.624 190.356 213.244 200.356 201.904C202.546 199.434 178.356 158.094 171.356 149.624C168.106 145.664 160.706 144.134 153.716 143.624Z" fill="#969269"/>
<path d="M178.236 211.833C178.236 211.833 188.646 208.163 199.506 197.833" stroke="#514D27" stroke-width="0.75" stroke-linecap="round" stroke-linejoin="round"/>
<path d="M170.236 60.0735L190.416 91.1735L153.086 107.853L143.386 92.9535L170.236 60.0735Z" fill="#371315"/>
<path d="M226.556 60.0735L206.366 91.1735L243.696 107.853L253.396 92.9535L226.556 60.0735Z" fill="#371315"/>
<path d="M259.966 209.784C252.506 175.004 240.876 152.104 240.876 152.104C240.876 152.104 249.606 146.184 251.616 141.394C253.626 136.604 248.226 109.254 240.876 100.804C233.526 92.3536 213.136 90.8936 198.396 90.8936C183.656 90.8936 163.256 92.3536 155.906 100.804C148.556 109.254 143.156 136.604 145.176 141.394C147.196 146.184 155.906 152.104 155.906 152.104C155.906 152.104 130.066 202.964 130.736 268.254C155.715 274.768 182.173 272.516 205.692 261.875C229.212 251.234 248.369 232.847 259.966 209.784Z" fill="#D0915E"/>
<path d="M220.826 133.113C234.306 140.113 245.146 137.773 251.896 134.523C250.946 124.453 246.496 107.203 240.896 100.803C234.566 93.5234 218.566 91.4334 204.826 90.9934C203.536 100.883 202.826 123.713 220.826 133.113Z" fill="#AD7041"/>
<path d="M130.736 267.674C130.736 268.134 130.606 268.223 131.106 268.343C131.456 268.443 131.816 268.533 132.166 268.613C132.886 268.793 133.596 268.963 134.316 269.123C135.883 269.483 137.453 269.817 139.026 270.123C142.086 270.683 145.176 271.123 148.276 271.413C154.638 272.035 161.041 272.112 167.416 271.643C168.946 271.533 170.476 271.393 172.006 271.213C172.596 271.153 173.696 271.214 174.086 270.764C174.476 270.314 174.956 269.693 175.386 269.153C176.943 267.141 178.379 265.037 179.686 262.854C182.435 258.283 184.554 253.362 185.986 248.223C189.11 237.188 188.174 225.398 183.346 214.993C179.469 206.761 173.547 199.658 166.146 194.363C160.667 190.466 154.587 187.493 148.146 185.563C147.036 185.223 145.926 184.913 144.796 184.643L143.466 184.333C142.996 185.853 142.526 187.383 142.086 188.923C140.293 195.017 138.706 201.167 137.326 207.373C132.829 227.169 130.604 247.413 130.696 267.713L130.736 267.674Z" fill="#AD7041"/>
<path d="M259.826 209.344C256.581 194.2 252.102 179.347 246.436 164.934C241.436 169.134 238.836 175.384 238.076 181.744C236.876 191.804 239.266 203.144 245.206 211.454C247.193 214.257 249.653 216.694 252.476 218.654C252.796 218.874 253.126 219.084 253.476 219.294C253.826 219.504 254.156 219.944 254.476 219.444C255.156 218.374 255.816 217.284 256.476 216.184C257.136 215.084 257.746 213.974 258.356 212.854C258.826 211.934 260.086 210.374 259.826 209.344Z" fill="#AD7041"/>
<path d="M143.386 92.9534C142.046 89.6134 166.536 59.2234 170.236 60.0734C173.936 60.9234 180.166 99.8134 177.526 103.623C174.886 107.433 147.386 102.973 143.386 92.9534Z" fill="#AD7041"/>
<path d="M253.396 92.9536C254.736 89.6136 230.256 59.2236 226.556 60.0736C222.856 60.9236 216.616 99.8136 219.256 103.624C221.896 107.434 249.396 102.974 253.396 92.9536Z" fill="#D0915E"/>
<g style="mix-blend-mode:multiply">
<path d="M180.126 202.104C180.126 202.104 174.736 223.474 186.366 234.794C186.366 234.794 184.096 227.394 186.366 222.694C186.366 222.694 186.366 236.803 206.746 240.393C206.746 240.393 209.996 231.774 209.596 223.614C209.596 223.614 211.976 229.614 211.536 233.614C211.536 233.614 219.896 230.224 220.776 216.914" stroke="#EDC8B9" stroke-width="0.75" stroke-linejoin="round"/>
</g>
<path d="M173.626 127.933C175.813 127.933 177.586 125.78 177.586 123.123C177.586 120.467 175.813 118.313 173.626 118.313C171.439 118.313 169.666 120.467 169.666 123.123C169.666 125.78 171.439 127.933 173.626 127.933Z" fill="#3A130E"/>
<path d="M173.626 127.934C175.816 127.934 177.626 125.774 177.626 123.124C177.627 122.35 177.471 121.584 177.166 120.874L169.916 124.694C170.101 125.562 170.563 126.347 171.232 126.931C171.901 127.515 172.741 127.867 173.626 127.934Z" fill="#231012"/>
<path d="M172.946 122.634C172.946 123.634 172.566 124.404 172.096 124.404C171.626 124.404 171.246 123.614 171.246 122.634C171.246 121.654 171.626 120.874 172.096 120.874C172.566 120.874 172.946 121.664 172.946 122.634Z" fill="#EFF6FE"/>
<path d="M227.126 123.123C227.126 125.773 225.346 127.933 223.126 127.933C220.906 127.933 219.126 125.773 219.126 123.123C219.126 120.473 220.896 118.313 223.126 118.313C225.356 118.313 227.126 120.463 227.126 123.123Z" fill="#3A130E"/>
<path d="M223.156 127.934C225.346 127.934 227.156 125.774 227.156 123.124C227.157 122.35 227.001 121.584 226.696 120.874L219.446 124.694C219.632 125.562 220.093 126.347 220.762 126.931C221.431 127.515 222.271 127.867 223.156 127.934Z" fill="#231012"/>
<path d="M222.476 122.634C222.476 123.634 222.096 124.404 221.626 124.404C221.156 124.404 220.776 123.614 220.776 122.634C220.776 121.654 221.156 120.874 221.626 120.874C222.096 120.874 222.476 121.664 222.476 122.634Z" fill="#EFF6FE"/>
<path d="M198.396 133.114C198.299 134.85 197.636 136.506 196.507 137.829C195.378 139.151 193.846 140.066 192.146 140.434V150.114C192.146 151.771 192.804 153.361 193.977 154.533C195.149 155.705 196.738 156.364 198.396 156.364C200.054 156.364 201.643 155.705 202.815 154.533C203.988 153.361 204.646 151.771 204.646 150.114V140.434C202.945 140.069 201.411 139.155 200.281 137.832C199.152 136.509 198.489 134.851 198.396 133.114Z" fill="#F49A8E"/>
<path d="M198.396 133.104V148.014" stroke="#E27169" stroke-linecap="round" stroke-linejoin="round"/>
<path d="M198.396 119.514C191.866 119.514 181.786 120.974 182.036 124.614C182.286 128.254 191.036 132.384 198.396 133.114C205.696 132.384 214.516 128.254 214.756 124.614C214.996 120.974 204.926 119.514 198.396 119.514Z" fill="#231012"/>
<path d="M216.656 134.164C216.656 134.164 216.126 140.724 207.356 140.724C198.586 140.724 198.356 133.114 198.356 133.114C198.356 133.114 198.166 140.724 189.356 140.724C180.546 140.724 180.056 134.164 180.056 134.164" stroke="#231012" stroke-linecap="round" stroke-linejoin="round"/>
<path d="M241.166 152.684C236.346 154.914 217.896 162.814 198.396 162.814C178.896 162.814 160.396 154.914 155.616 152.684C155.256 153.434 154.616 154.884 153.616 156.984C157.006 161.314 170.616 175.984 198.376 175.984C226.136 175.984 239.736 161.274 243.136 156.984C242.226 154.884 241.526 153.434 241.166 152.684Z" fill="#EFD79A"/>
<path d="M209.281 192.535C210.702 186.514 206.973 180.482 200.953 179.061C194.933 177.64 188.901 181.369 187.48 187.389C186.059 193.409 189.788 199.441 195.808 200.862C201.828 202.283 207.86 198.555 209.281 192.535Z" fill="#F89D4A"/>
<path d="M182.866 193.633L211.536 173.773" stroke="#EFD79A" stroke-width="3" stroke-miterlimit="10"/>
<path d="M184.116 199.214L212.786 179.364" stroke="#EFD79A" stroke-width="5" stroke-miterlimit="10"/>
<path d="M206.507 191.88C207.567 187.392 204.787 182.894 200.299 181.835C195.811 180.776 191.313 183.555 190.254 188.044C189.195 192.532 191.974 197.029 196.463 198.088C200.951 199.148 205.448 196.368 206.507 191.88Z" fill="#B2552D"/>
<path d="M206.746 189.974C206.746 188.322 206.256 186.708 205.339 185.335C204.421 183.961 203.117 182.891 201.591 182.259C200.066 181.627 198.387 181.462 196.767 181.784C195.147 182.106 193.659 182.901 192.492 184.069C191.324 185.237 190.529 186.725 190.206 188.345C189.884 189.964 190.05 191.643 190.682 193.169C191.313 194.695 192.384 195.999 193.757 196.916C195.13 197.834 196.744 198.324 198.396 198.324C199.494 198.327 200.581 198.114 201.596 197.696C202.611 197.278 203.533 196.663 204.309 195.887C205.085 195.111 205.7 194.188 206.118 193.174C206.537 192.159 206.75 191.071 206.746 189.974Z" fill="#D46327"/>
<path d="M198.396 169.154V180.144" stroke="white" stroke-width="2" stroke-linecap="round" stroke-linejoin="round"/>
<path d="M198.096 233.033C197.966 231.823 181.846 233.573 183.776 232.953C185.706 232.333 204.956 225.573 203.256 224.713C201.556 223.853 179.026 227.153 182.336 225.903C185.646 224.653 207.256 215.783 205.666 214.173C204.076 212.563 179.506 222.173 181.326 220.673C183.146 219.173 203.686 206.483 202.416 205.303C201.146 204.123 190.346 209.593 187.666 211.183C184.986 212.773 166.526 219.863 165.416 219.033C164.306 218.203 165.706 216.163 168.496 212.233C171.286 208.303 171.396 204.233 170.676 202.113C169.676 199.213 167.176 201.113 163.086 208.113C160.576 212.453 156.216 216.113 151.086 220.463C147.086 223.843 146.086 231.383 145.846 234.523C128.486 236.723 96.4163 240.193 90.5063 238.993C87.6563 238.413 86.7263 209.763 87.3663 193.993C88.3063 170.933 85.7262 162.133 70.6063 166.093C59.1763 169.093 52.9463 180.953 56.6663 225.503C59.0663 254.223 69.5563 272.773 77.7863 274.843C84.3663 276.503 128.936 260.413 152.576 250.903C156.646 249.903 166.696 245.533 175.286 242.303C183.876 239.073 198.306 234.833 198.096 233.033Z" fill="#FFB48C"/>
<path d="M90.6961 226.223C91.6161 224.673 94.8261 159.413 70.6961 152.933C64.5904 156.07 59.9326 161.444 57.6961 167.933C53.6961 179.533 39.3561 213.293 40.0261 216.583C40.6961 219.873 57.3561 228.203 80.6961 227.863C85.3561 227.883 89.6961 227.883 90.6961 226.223Z" fill="#969269"/>
<path d="M40.3262 214.463C40.3262 214.463 57.4362 225.033 91.0362 223.573" stroke="#514D27" stroke-width="0.75" stroke-linecap="round" stroke-linejoin="round"/>
</svg>
