<?xml version="1.0" standalone="no"?>
<!DOCTYPE svg PUBLIC "-//W3C//DTD SVG 20010904//EN"
 "http://www.w3.org/TR/2001/REC-SVG-20010904/DTD/svg10.dtd">
<svg version="1.0" xmlns="http://www.w3.org/2000/svg"
 width="259.000000pt" height="194.000000pt" viewBox="0 0 259.000000 194.000000"
 preserveAspectRatio="xMidYMid meet">

<g transform="translate(0.000000,194.000000) scale(0.100000,-0.100000)"
fill="#000000" stroke="none">
<path d="M1083 1808 c-27 -13 -46 -66 -37 -104 3 -16 19 -71 35 -122 16 -51
29 -101 29 -111 0 -13 -16 -25 -51 -41 -78 -33 -141 -36 -227 -10 -69 21 -75
25 -111 79 -84 123 -185 188 -249 162 -29 -12 -52 -47 -52 -79 0 -9 29 -64 65
-120 54 -88 115 -227 104 -236 -2 -1 -37 -7 -77 -13 -96 -15 -172 -54 -247
-128 -85 -84 -110 -139 -110 -240 0 -58 5 -90 19 -118 23 -46 84 -106 127
-124 77 -32 185 1 220 67 26 48 24 77 -8 106 -29 27 -50 28 -109 3 -43 -17
-84 7 -84 51 0 88 84 182 200 223 91 32 95 32 124 -17 59 -101 182 -183 386
-256 137 -49 230 -98 289 -150 49 -45 41 -49 -48 -21 -34 10 -61 15 -61 11 0
-9 77 -35 131 -44 20 -4 44 -15 53 -25 16 -18 15 -19 -15 -30 -18 -6 -61 -11
-96 -11 -40 0 -62 -4 -58 -10 9 -14 81 -12 142 3 l52 14 16 -44 c16 -40 16
-45 1 -66 -55 -74 -76 -114 -76 -143 0 -38 15 -46 98 -49 51 -2 55 -3 78 -42
31 -52 71 -70 123 -54 46 13 59 27 75 82 l13 42 71 -2 c39 -1 97 3 129 9 52
10 68 9 128 -8 134 -39 243 -37 259 5 8 20 -24 82 -71 140 l-36 43 19 42 c14
31 19 66 19 125 l0 83 30 0 c36 1 95 21 131 45 38 25 21 31 -19 6 -60 -37
-167 -45 -167 -12 0 5 20 21 44 35 54 31 106 74 106 87 0 5 -22 -8 -49 -29
-26 -21 -62 -44 -80 -51 -31 -13 -31 -13 -112 69 -60 61 -79 86 -73 98 32 75
-8 172 -119 285 -103 105 -179 137 -246 102 -31 -15 -41 -33 -41 -71 0 -24 0
-24 -60 14 -40 25 -82 65 -123 118 -35 43 -91 99 -124 123 -54 39 -62 50 -83
110 -40 118 -77 181 -115 197 -40 16 -52 17 -82 2z m57 -33 c12 -33 24 -32 16
0 -6 24 -5 25 14 13 23 -14 57 -80 94 -184 17 -47 34 -76 53 -89 38 -27 149
-139 194 -195 20 -26 63 -60 99 -80 34 -19 93 -61 132 -93 56 -48 67 -61 57
-73 -9 -11 -7 -14 12 -14 12 0 33 -10 46 -22 13 -12 26 -18 30 -14 5 4 -12 26
-37 49 -25 22 -66 60 -93 84 -71 66 -102 125 -41 78 36 -27 39 -15 4 15 -28
23 -33 31 -22 41 10 11 18 10 42 -4 17 -10 30 -14 30 -9 0 6 -7 13 -16 16 -27
10 -4 26 29 19 47 -9 94 -42 168 -119 106 -111 144 -211 101 -264 l-19 -23
-82 16 c-112 23 -116 23 -297 -20 -16 -4 -24 2 -34 26 -7 17 -16 31 -21 31
-13 0 -12 -6 16 -59 52 -104 102 -344 112 -538 7 -133 -8 -202 -47 -223 -36
-19 -85 -12 -112 17 -37 39 -46 68 -74 228 -13 77 -34 174 -45 216 -21 77 -72
179 -89 179 -15 0 -13 -5 20 -57 31 -48 43 -133 19 -133 -6 0 -40 25 -76 55
-77 66 -132 95 -275 146 -192 69 -308 139 -372 228 -38 52 -48 80 -71 201 -20
103 -47 166 -115 264 -37 54 -51 82 -48 101 l3 27 28 -22 c15 -12 27 -17 27
-11 0 5 -11 18 -25 29 -21 17 -23 21 -10 32 11 10 20 8 41 -9 29 -23 44 -21
24 4 -10 12 -10 15 3 15 28 0 99 -64 159 -141 54 -72 62 -78 130 -103 75 -28
154 -80 181 -118 10 -15 16 -18 16 -9 1 8 -19 34 -44 58 l-45 43 28 5 c15 3
56 15 91 26 53 18 65 19 73 8 20 -28 -1 97 -31 192 -31 98 -39 153 -21 164 5
3 16 -7 25 -22 16 -28 16 -9 0 30 -5 13 -2 17 14 17 14 0 25 -9 31 -25z m-547
-592 c3 -10 8 -34 11 -54 6 -36 6 -36 -35 -43 -55 -9 -152 -59 -190 -99 -35
-36 -79 -121 -79 -153 0 -30 35 -71 67 -77 14 -3 41 2 59 10 66 32 112 -11 84
-77 -15 -35 -49 -62 -102 -79 -82 -27 -199 52 -227 152 -16 57 -10 160 12 203
36 70 127 158 204 198 72 37 188 48 196 19z m1372 -278 c123 -32 217 -105 263
-203 20 -45 24 -65 20 -125 -2 -48 -10 -86 -24 -112 l-21 -41 34 -34 c30 -31
83 -110 83 -124 0 -12 -71 -6 -105 8 -18 8 -38 23 -44 34 -6 12 -20 23 -31 26
-11 3 -29 9 -40 12 -11 3 -20 1 -20 -4 0 -6 12 -13 28 -16 15 -4 39 -21 53
-37 19 -23 40 -35 85 -45 l59 -14 -85 5 c-47 2 -115 13 -152 25 -54 17 -75 19
-110 10 -24 -5 -80 -10 -125 -10 l-83 0 0 54 c0 30 -5 90 -11 132 -9 68 -9 80
5 90 22 16 20 33 -3 27 -16 -4 -20 4 -30 64 -7 37 -23 108 -37 157 -15 55 -22
92 -16 98 35 35 210 48 307 23z m100 -5 c3 -5 1 -10 -4 -10 -6 0 -11 5 -11 10
0 6 2 10 4 10 3 0 8 -4 11 -10z m-607 -425 c0 -12 -5 -7 -13 15 -7 19 -13 51
-13 70 0 33 1 32 13 -15 7 -27 13 -59 13 -70z m26 -142 l7 -52 -38 -10 c-44
-13 -83 -14 -83 -3 1 12 33 65 65 109 34 47 38 44 49 -44z m16 -88 c0 -11 -12
-15 -47 -14 l-48 1 35 13 c47 18 60 18 60 0z"/>
<path d="M1585 335 c-29 -28 -31 -42 -9 -73 10 -14 25 -22 44 -22 60 0 78 84
24 109 -33 14 -31 15 -59 -14z m65 -10 c15 -18 6 -61 -15 -69 -40 -15 -69 32
-39 65 21 23 37 24 54 4z"/>
<path d="M1680 250 c-13 -8 -13 -11 2 -26 16 -17 18 -17 24 0 9 23 -7 38 -26
26z"/>
<path d="M1557 234 c-14 -15 -6 -34 14 -34 14 0 19 5 17 17 -3 18 -20 27 -31
17z"/>
<path d="M1593 194 c-8 -21 13 -42 28 -27 13 13 5 43 -11 43 -6 0 -13 -7 -17
-16z"/>
<path d="M1645 200 c-8 -13 3 -30 20 -30 14 0 27 24 18 34 -10 9 -31 7 -38 -4z"/>
<path d="M1791 714 c-21 -17 -31 -35 -31 -53 0 -15 -5 -32 -12 -39 -8 -8 -8
-12 -1 -12 6 0 16 7 23 15 7 8 25 15 41 15 29 0 46 -14 29 -25 -15 -9 -12 -41
4 -54 20 -17 64 -3 72 22 5 15 0 26 -15 38 l-22 18 22 11 c12 7 35 9 51 6 30
-6 30 -6 -15 39 -56 55 -97 60 -146 19z m84 -4 c-3 -5 -17 -10 -31 -10 -13 0
-24 5 -24 10 0 6 14 10 31 10 17 0 28 -4 24 -10z m20 -44 c-23 -19 -34 -22
-49 -14 -10 5 -29 8 -42 5 -18 -3 -24 0 -24 14 0 16 6 18 43 13 29 -4 48 -1
62 10 34 26 44 -1 10 -28z m3 -73 c-4 -20 -35 -30 -50 -15 -15 15 0 32 28 32
19 0 25 -5 22 -17z"/>
<path d="M2002 608 c-7 -7 -12 -21 -12 -33 0 -29 19 -45 52 -45 36 0 56 36 39
69 -13 23 -59 29 -79 9z m33 -48 c3 -5 -1 -10 -9 -10 -9 0 -16 5 -16 10 0 6 4
10 9 10 6 0 13 -4 16 -10z"/>
</g>
</svg>
