<?xml version="1.0" standalone="no"?>
<!DOCTYPE svg PUBLIC "-//W3C//DTD SVG 20010904//EN"
 "http://www.w3.org/TR/2001/REC-SVG-20010904/DTD/svg10.dtd">
<svg version="1.0" xmlns="http://www.w3.org/2000/svg"
 width="130.000000pt" height="97.000000pt" viewBox="0 0 130.000000 97.000000"
 preserveAspectRatio="xMidYMid meet">

<g transform="translate(0.000000,97.000000) scale(0.100000,-0.100000)"
fill="#000000" stroke="none">
<path d="M439 919 c-21 -40 4 -90 85 -170 57 -57 76 -83 81 -111 16 -84 -69
-165 -183 -175 -80 -7 -121 8 -177 68 -33 36 -45 43 -40 27 19 -59 53 -110
128 -186 l82 -82 0 -110 0 -110 51 0 51 0 5 79 c5 93 24 131 88 179 92 69 91
67 76 104 -7 18 -17 50 -20 71 -8 44 9 57 46 33 20 -13 25 -13 42 0 11 8 34
14 52 14 26 0 33 5 38 26 4 14 12 24 19 22 18 -6 67 -107 67 -139 0 -30 -40
-85 -69 -94 -10 -3 -23 -17 -29 -31 -14 -30 -16 -113 -3 -148 9 -23 8 -25 -29
-31 -40 -7 -90 -47 -90 -71 0 -11 30 -14 148 -14 148 0 149 0 188 28 22 16 50
49 64 74 19 36 32 48 61 57 48 15 116 88 125 136 9 52 0 130 -20 160 -24 37
-36 23 -36 -43 0 -66 -23 -113 -68 -136 l-30 -15 -12 45 c-38 133 -145 215
-464 354 -87 38 -163 86 -153 96 2 2 21 -5 42 -16 53 -27 90 -25 120 5 46 45
29 73 -51 85 -32 4 -76 15 -96 24 -51 22 -75 20 -89 -5z"/>
<path d="M113 838 c-57 -49 -60 -52 -82 -89 -23 -38 -27 -79 -10 -112 16 -30
28 -37 65 -37 40 0 48 11 68 85 9 33 21 79 28 103 9 30 9 48 2 59 -17 27 -30
26 -71 -9z"/>
<path d="M400 750 c0 -13 7 -20 20 -20 13 0 20 7 20 20 0 13 -7 20 -20 20 -13
0 -20 -7 -20 -20z"/>
<path d="M282 708 c2 -13 10 -23 18 -23 8 0 16 10 18 23 3 17 -2 22 -18 22
-16 0 -21 -5 -18 -22z"/>
<path d="M420 622 c-65 -32 -47 -92 27 -92 58 0 104 65 71 98 -17 17 -57 15
-98 -6z"/>
<path d="M856 503 c-11 -11 -6 -23 9 -23 8 0 15 4 15 9 0 13 -16 22 -24 14z"/>
<path d="M760 465 c0 -8 7 -15 15 -15 8 0 15 7 15 15 0 8 -7 15 -15 15 -8 0
-15 -7 -15 -15z"/>
<path d="M835 450 c-3 -5 -1 -10 4 -10 6 0 11 5 11 10 0 6 -2 10 -4 10 -3 0
-8 -4 -11 -10z"/>
<path d="M275 218 l0 -149 45 3 45 3 3 84 c3 98 -6 127 -56 173 l-37 34 0
-148z"/>
</g>
</svg>
