<?xml version="1.0" standalone="no"?>
<!DOCTYPE svg PUBLIC "-//W3C//DTD SVG 20010904//EN"
 "http://www.w3.org/TR/2001/REC-SVG-20010904/DTD/svg10.dtd">
<svg version="1.0" xmlns="http://www.w3.org/2000/svg"
 width="225.000000pt" height="225.000000pt" viewBox="0 0 225.000000 225.000000"
 preserveAspectRatio="xMidYMid meet">

<g transform="translate(0.000000,225.000000) scale(0.100000,-0.100000)"
fill="#000000" stroke="none">
<path d="M588 1858 c-13 -23 -16 -157 -8 -298 2 -46 -3 -86 -17 -135 -61 -206
-68 -274 -28 -259 8 3 10 -5 7 -25 -4 -26 -1 -31 24 -37 16 -4 53 -29 81 -55
29 -26 74 -55 100 -65 27 -10 49 -18 51 -19 1 -1 -10 -28 -24 -61 -15 -32 -41
-101 -60 -153 -28 -82 -37 -97 -66 -112 -18 -10 -40 -18 -48 -19 -8 0 -33 -16
-55 -34 -38 -33 -40 -37 -39 -89 2 -64 33 -137 71 -167 39 -30 87 -35 182 -16
120 23 496 23 607 0 101 -21 147 -15 190 27 53 51 82 168 54 220 -8 14 -7 25
4 41 43 67 27 147 -54 268 -34 51 -50 85 -50 108 0 67 77 96 125 47 14 -13 25
-34 25 -45 0 -29 26 -76 52 -94 32 -23 73 -20 104 7 53 46 43 177 -18 251 -34
42 -116 86 -160 86 -30 0 -28 -3 -53 114 -9 43 -25 103 -36 133 -16 46 -17 62
-8 102 17 70 16 230 -1 266 -13 25 -22 30 -57 33 -42 3 -114 -26 -173 -70 -26
-19 -30 -19 -103 -4 -96 20 -183 20 -287 0 -73 -13 -84 -13 -99 0 -9 8 -42 28
-75 45 -74 39 -139 43 -158 9z m119 -13 c20 -8 58 -31 85 -50 l49 -35 57 17
c77 23 245 23 330 0 l64 -17 30 26 c45 37 123 74 158 74 24 0 33 -6 40 -26 13
-34 13 -172 -1 -250 -10 -55 -8 -69 9 -116 11 -29 29 -96 40 -148 11 -52 24
-104 28 -114 6 -17 4 -18 -21 -12 -27 7 -28 6 -22 -28 5 -28 2 -36 -10 -36 -8
0 -42 -24 -74 -54 -63 -58 -123 -86 -244 -113 -94 -21 -110 -38 -27 -29 35 4
74 11 87 16 22 8 26 4 56 -68 37 -89 79 -207 79 -222 0 -5 -9 -10 -20 -10 -12
0 -35 -7 -51 -16 l-31 -16 7 31 c9 44 -1 38 -23 -11 -25 -58 -112 -134 -112
-98 0 6 -9 5 -24 -2 -14 -6 -32 -8 -41 -4 -15 5 -14 8 6 25 l23 18 -32 -5
c-27 -4 -32 -1 -32 16 0 11 18 42 41 68 43 52 78 117 79 147 0 27 -17 12 -23
-21 -3 -16 -31 -60 -61 -98 -67 -84 -73 -118 -25 -158 17 -14 42 -26 55 -26
30 0 92 25 116 47 10 9 18 13 18 10 0 -4 15 9 33 28 23 26 43 37 72 41 l40 6
-27 -23 c-34 -31 -48 -60 -47 -101 0 -33 0 -33 14 10 21 67 36 79 105 79 35 1
63 -4 68 -11 4 -6 16 -16 27 -22 56 -31 8 -191 -69 -228 -37 -18 -41 -18 -115
-1 -53 12 -135 19 -276 22 -193 5 -288 -2 -406 -28 -51 -11 -60 -11 -95 8 -44
23 -79 82 -90 150 -6 40 -4 45 31 77 33 30 43 34 91 34 48 -1 58 -4 79 -30 14
-16 25 -37 25 -46 0 -9 5 -24 11 -32 17 -24 0 61 -17 88 -9 13 -30 30 -47 37
-28 12 -29 14 -9 15 33 0 76 -25 96 -55 10 -15 20 -24 23 -21 3 3 19 -6 35
-19 55 -47 133 -43 171 7 26 35 18 61 -43 140 -27 36 -56 82 -63 103 -8 21
-16 34 -19 29 -11 -17 20 -85 65 -143 59 -74 63 -97 20 -95 l-33 2 23 -18 c19
-16 20 -19 5 -25 -9 -4 -25 -2 -36 4 -15 8 -21 8 -24 0 -6 -17 -62 15 -86 49
-11 15 -27 43 -36 62 l-16 35 4 -39 c5 -35 4 -37 -12 -23 -9 8 -27 18 -39 21
l-22 7 31 87 c16 48 43 116 59 151 28 62 30 63 61 57 63 -12 143 -19 135 -10
-4 4 -50 18 -102 31 -121 29 -177 56 -239 115 -28 26 -59 48 -69 48 -14 0 -16
4 -7 19 19 37 13 51 -21 44 -28 -5 -30 -4 -21 13 5 10 19 66 32 123 12 58 30
125 40 150 16 43 17 52 3 121 -16 84 -12 222 7 245 16 19 51 19 97 0z m976
-646 c83 -23 146 -111 147 -205 0 -64 -23 -97 -68 -97 -42 0 -59 17 -77 76
-21 71 -48 97 -101 97 -31 0 -51 -7 -70 -24 -39 -33 -37 -79 6 -148 74 -118
90 -152 90 -201 0 -26 -7 -62 -16 -78 -14 -29 -17 -30 -33 -15 -10 9 -35 16
-56 16 l-38 0 21 23 c42 44 34 94 -32 203 -78 128 -78 133 -16 173 28 18 58
44 67 57 9 14 25 24 38 24 29 0 46 20 39 47 -5 16 -1 21 13 20 12 -1 19 6 21
21 4 25 11 26 65 11z m-242 -365 c43 -63 61 -124 45 -155 -21 -44 -37 -27 -76
81 -21 58 -47 127 -59 153 -25 58 -25 55 -4 59 13 2 24 -10 40 -44 12 -27 36
-69 54 -94z"/>
<path d="M630 1811 c-18 -35 -7 -208 15 -229 4 -4 14 4 23 18 9 14 40 49 69
78 29 29 53 56 53 61 0 17 -113 91 -139 91 -6 0 -15 -9 -21 -19z m115 -57 c19
-14 19 -16 -18 -50 -21 -20 -46 -48 -55 -62 l-17 -26 -7 40 c-9 50 -10 118 -2
138 5 14 10 14 43 -5 20 -11 45 -27 56 -35z"/>
<path d="M1392 1790 c-34 -22 -62 -43 -62 -48 0 -5 26 -35 58 -68 33 -32 64
-68 70 -79 21 -38 35 -1 40 104 7 145 -6 156 -106 91z m88 -56 c0 -28 -3 -66
-6 -83 l-7 -31 -28 39 c-16 21 -40 46 -54 55 -31 20 -26 29 33 67 54 34 62 28
62 -47z"/>
<path d="M847 1514 c-14 -14 -6 -19 33 -19 24 -1 39 3 37 10 -4 12 -59 19 -70
9z"/>
<path d="M1213 1514 c-26 -11 -12 -19 32 -19 26 0 44 4 42 10 -4 11 -55 17
-74 9z"/>
<path d="M835 1387 c-48 -73 -11 -193 54 -172 44 14 61 118 27 169 -21 33 -60
34 -81 3z m73 -58 c-4 -28 -31 -32 -36 -6 -5 23 18 51 30 39 6 -6 8 -20 6 -33z"/>
<path d="M1211 1384 c-43 -54 -15 -174 39 -174 10 0 28 12 39 26 43 54 15 174
-39 174 -10 0 -28 -12 -39 -26z m34 -49 c0 -16 -5 -30 -12 -32 -14 -5 -28 40
-18 57 12 19 30 4 30 -25z"/>
<path d="M1020 1245 c0 -7 7 -18 17 -23 21 -12 10 -42 -15 -42 -10 0 -23 5
-30 12 -18 18 -13 -2 11 -47 20 -36 26 -40 62 -40 36 0 42 4 57 35 9 19 17 42
17 50 0 10 -2 11 -6 3 -2 -7 -15 -13 -28 -13 -28 0 -42 30 -20 42 30 18 17 38
-25 38 -28 0 -40 -4 -40 -15z m65 -115 c-3 -5 -15 -10 -26 -10 -10 0 -19 5
-19 10 0 6 12 10 26 10 14 0 23 -4 19 -10z"/>
<path d="M1668 1674 c-53 -28 -74 -110 -43 -164 8 -14 14 -38 15 -54 0 -23 3
-27 18 -21 9 5 43 11 74 14 41 5 64 14 83 31 79 74 28 211 -78 210 -23 -1 -54
-7 -69 -16z m129 -20 c12 -7 27 -31 34 -53 21 -72 -27 -126 -118 -134 -44 -3
-53 -1 -53 12 0 9 -7 25 -15 35 -8 11 -15 36 -15 56 0 86 92 133 167 84z"/>
<path d="M1693 1594 c-6 -17 24 -54 43 -54 19 0 46 42 34 54 -15 15 -71 15
-77 0z"/>
</g>
</svg>
