<?xml version="1.0" standalone="no"?>
<!DOCTYPE svg PUBLIC "-//W3C//DTD SVG 20010904//EN"
 "http://www.w3.org/TR/2001/REC-SVG-20010904/DTD/svg10.dtd">
<svg version="1.0" xmlns="http://www.w3.org/2000/svg"
 width="259.000000pt" height="194.000000pt" viewBox="0 0 259.000000 194.000000"
 preserveAspectRatio="xMidYMid meet">

<g transform="translate(0.000000,194.000000) scale(0.100000,-0.100000)"
fill="#000000" stroke="none">
<path d="M790 1920 c0 -5 7 -7 15 -4 8 4 15 8 15 10 0 2 -7 4 -15 4 -8 0 -15
-4 -15 -10z"/>
<path d="M854 1915 c-8 -19 3 -35 24 -35 15 1 15 2 -1 11 -14 8 -16 14 -6 25
8 10 9 14 0 14 -6 0 -14 -7 -17 -15z"/>
<path d="M895 1920 c-4 -7 -3 -16 3 -22 14 -14 45 -2 40 15 -6 16 -34 21 -43
7z m30 -10 c3 -5 1 -10 -4 -10 -6 0 -11 5 -11 10 0 6 2 10 4 10 3 0 8 -4 11
-10z"/>
<path d="M951 1903 l1 -28 8 25 c7 21 8 22 9 5 2 -20 2 -20 13 0 11 19 11 19
19 0 7 -19 8 -18 8 3 1 18 -4 22 -29 22 -26 0 -30 -3 -29 -27z"/>
<path d="M800 1890 c-9 -6 -10 -10 -3 -10 6 0 15 5 18 10 8 12 4 12 -15 0z"/>
<path d="M2107 1820 c-26 -32 -75 -81 -108 -107 -32 -26 -62 -56 -64 -65 -5
-13 -15 -16 -43 -12 l-37 4 33 -9 c32 -8 35 -6 145 103 120 118 145 146 131
146 -5 0 -31 -27 -57 -60z"/>
<path d="M1311 1834 c-11 -14 -30 -55 -43 -92 -19 -57 -23 -87 -23 -197 0
-129 0 -130 36 -200 l35 -70 -18 -40 c-11 -27 -17 -62 -16 -105 l1 -65 7 75
c4 42 14 90 23 107 16 29 15 32 -20 99 -34 62 -37 76 -41 170 -5 112 11 202
51 284 26 53 49 61 85 27 15 -13 38 -30 52 -36 21 -10 22 -10 6 1 -11 7 -34
25 -51 41 -40 34 -58 34 -84 1z"/>
<path d="M2226 1820 c21 -43 24 -47 24 -28 0 9 -9 26 -20 39 l-21 24 17 -35z"/>
<path d="M2131 1722 c-28 -55 -55 -103 -61 -107 -5 -3 -10 -16 -10 -28 1 -19
3 -18 16 8 8 17 36 73 63 125 l49 95 26 -55 c14 -30 26 -49 26 -42 0 21 -26
76 -43 90 -14 12 -22 2 -66 -86z"/>
<path d="M1316 1752 c-8 -16 -17 -53 -20 -83 l-6 -54 13 60 c7 33 19 70 25 83
7 12 10 22 8 22 -3 0 -12 -13 -20 -28z"/>
<path d="M1350 1766 c0 -21 45 -73 92 -106 26 -19 57 -48 68 -65 11 -16 20
-25 20 -20 0 15 -40 58 -94 101 -27 21 -58 53 -68 69 -10 17 -18 26 -18 21z"/>
<path d="M1504 1756 c11 -9 24 -16 30 -16 12 0 7 5 -24 19 -24 11 -24 11 -6
-3z"/>
<path d="M2252 1765 c0 -5 6 -26 13 -45 7 -19 14 -28 14 -20 0 8 -6 29 -14 45
-7 17 -13 26 -13 20z"/>
<path d="M1550 1737 c0 -2 19 -17 43 -32 23 -15 51 -38 62 -52 20 -23 22 -23
105 -14 l85 10 -83 -4 c-83 -4 -83 -4 -116 28 -30 30 -96 74 -96 64z"/>
<path d="M2285 1563 c0 -107 -3 -124 -28 -182 -16 -35 -26 -65 -24 -67 6 -7
45 87 56 137 12 48 13 171 3 207 -4 13 -7 -30 -7 -95z"/>
<path d="M2088 1585 c-3 -3 -3 -16 -1 -30 4 -16 10 -22 20 -18 13 5 13 2 4
-15 -9 -16 -8 -23 2 -29 8 -4 19 -17 26 -28 10 -17 12 -17 7 -2 -3 10 -6 25
-6 33 0 9 -4 12 -10 9 -13 -8 -13 1 0 26 9 16 7 19 -10 19 -17 0 -20 4 -15 20
6 18 -4 27 -17 15z"/>
<path d="M1455 1560 c9 -30 13 -35 21 -27 3 3 -2 16 -11 29 l-17 23 7 -25z"/>
<path d="M1385 1547 c-19 -15 -13 -37 11 -37 12 0 13 -4 2 -22 -18 -34 -18
-48 -1 -48 12 0 13 3 4 14 -9 11 -8 17 6 28 27 20 26 38 -2 38 -33 0 -32 16 3
28 15 6 20 11 11 11 -8 1 -23 -5 -34 -12z"/>
<path d="M2020 1280 c-39 -39 -16 -141 37 -161 34 -13 57 -4 71 27 16 34 15
59 -5 97 -30 59 -68 72 -103 37z m20 -20 c0 -5 -4 -10 -10 -10 -5 0 -10 5 -10
10 0 6 5 10 10 10 6 0 10 -4 10 -10z m-5 -48 c0 -18 -20 -15 -23 4 -3 10 1 15
10 12 7 -3 13 -10 13 -16z"/>
<path d="M2230 1291 c0 -6 4 -13 10 -16 6 -3 7 1 4 9 -7 18 -14 21 -14 7z"/>
<path d="M1700 1276 c-42 -13 -80 -67 -80 -111 0 -119 154 -93 167 29 8 69
-26 102 -87 82z m-9 -39 c-13 -13 -26 -3 -16 12 3 6 11 8 17 5 6 -4 6 -10 -1
-17z m-11 -21 c0 -16 -14 -36 -26 -36 -14 0 -19 22 -7 33 7 8 33 10 33 3z"/>
<path d="M2260 1240 c0 -3 7 -27 15 -54 22 -72 19 -97 -20 -173 -42 -80 -75
-112 -170 -160 -38 -19 -59 -33 -46 -30 16 4 29 0 37 -11 12 -15 12 -15 8 4
-5 17 4 27 49 52 66 37 101 77 140 161 29 62 30 67 19 129 -6 36 -15 69 -21
75 -6 6 -11 9 -11 7z"/>
<path d="M1842 1090 c-50 -21 -37 -74 29 -116 40 -25 42 -27 24 -40 -10 -8
-14 -14 -8 -14 7 0 14 4 17 9 8 12 56 -10 56 -26 0 -6 5 -15 12 -19 8 -5 9 0
5 15 -3 13 -3 21 -1 18 6 -6 74 66 74 77 0 4 -15 -9 -34 -28 -21 -23 -43 -36
-59 -36 -36 0 -41 14 -11 31 34 18 74 66 74 89 0 35 -28 50 -93 49 -34 0 -72
-4 -85 -9z"/>
<path d="M1290 1051 c0 -7 14 -33 30 -58 17 -24 30 -46 30 -48 0 -5 -92 -34
-125 -38 l-30 -4 31 -2 c17 0 50 6 73 14 22 8 41 12 41 10 0 -2 -9 -25 -21
-51 -17 -40 -18 -50 -6 -59 7 -5 16 -19 20 -29 4 -10 11 -16 14 -12 4 4 15
-18 24 -49 12 -36 32 -69 60 -97 l42 -43 -28 38 c-15 20 -31 37 -35 37 -10 0
-40 91 -40 121 0 18 -2 19 -15 9 -13 -11 -15 -7 -15 26 0 35 -1 37 -15 18 -21
-28 -18 -12 10 52 l25 57 28 -24 c15 -13 8 -3 -15 21 -22 25 -50 63 -62 85
-12 22 -21 34 -21 26z"/>
<path d="M1677 993 c-4 -3 -7 -14 -7 -24 0 -22 124 -100 148 -93 13 5 14 4 3
-4 -10 -7 -10 -11 -1 -17 15 -9 32 14 26 38 -2 9 1 17 7 17 7 1 -4 7 -23 14
-19 7 -44 17 -54 21 -12 5 -17 5 -13 -1 3 -6 -5 -10 -18 -10 -13 0 -21 4 -19
8 3 5 9 6 14 3 5 -3 11 -1 14 4 4 5 -6 19 -20 30 -27 22 -46 26 -57 14z"/>
<path d="M416 954 c-9 -24 -7 -31 5 -11 13 23 26 22 34 -4 4 -11 23 -28 44
-37 20 -10 50 -27 68 -39 17 -13 34 -23 39 -23 12 0 -70 55 -102 69 -17 7 -36
23 -42 37 -13 27 -37 32 -46 8z"/>
<path d="M396 873 c-4 -28 -3 -60 2 -70 5 -10 8 -35 6 -55 -2 -29 3 -45 22
-68 14 -16 32 -30 40 -30 8 0 14 -1 14 -2 0 -2 -7 -25 -15 -52 -21 -70 -19
-131 11 -241 14 -54 23 -107 20 -118 -4 -15 -2 -17 7 -8 9 9 5 37 -16 119 -28
112 -33 177 -18 227 51 162 120 246 238 294 26 11 43 20 37 20 -23 2 -90 -32
-141 -70 -34 -25 -62 -59 -84 -99 -19 -33 -40 -60 -47 -60 -15 0 -62 45 -62
60 0 5 5 10 11 10 5 0 7 5 4 11 -4 5 -8 20 -10 32 -1 12 -6 35 -10 51 -5 18
-4 31 3 35 8 4 9 17 3 36 -7 28 -8 27 -15 -22z"/>
<path d="M778 902 c-9 -4 79 -8 195 -10 116 -2 210 -1 207 1 -9 8 -385 16
-402 9z"/>
<path d="M1434 886 c11 -9 24 -16 30 -16 12 0 7 5 -24 19 -24 11 -24 11 -6 -3z"/>
<path d="M1495 860 c27 -12 43 -12 25 0 -8 5 -22 9 -30 9 -10 0 -8 -3 5 -9z"/>
<path d="M1960 858 c0 -27 -20 -42 -62 -48 l-43 -7 38 -2 c25 -1 43 5 57 19
18 18 28 50 15 50 -3 0 -5 -6 -5 -12z"/>
<path d="M1836 827 c3 -10 9 -15 12 -12 3 3 0 11 -7 18 -10 9 -11 8 -5 -6z"/>
<path d="M2090 781 c0 -6 4 -13 10 -16 6 -3 7 1 4 9 -7 18 -14 21 -14 7z"/>
<path d="M2112 713 c-1 -23 -8 -43 -14 -46 -7 -2 -10 -8 -5 -12 15 -17 28 13
24 56 l-4 44 -1 -42z"/>
<path d="M2065 612 c-11 -14 -33 -38 -50 -55 l-30 -29 28 17 c15 10 32 25 37
34 8 13 9 14 10 1 0 -31 -80 -157 -132 -206 -31 -30 -89 -68 -138 -93 -85 -42
-210 -85 -210 -73 0 4 11 30 25 57 15 28 19 41 9 30 -22 -27 -64 -121 -64
-145 0 -11 -5 -20 -12 -20 -6 0 -4 -7 5 -18 23 -26 21 -58 -5 -76 -24 -17 -13
-22 12 -6 11 7 15 29 15 82 l0 73 90 30 c50 17 118 44 153 62 34 18 62 30 62
29 0 -2 29 24 63 59 59 57 90 107 150 242 15 33 5 35 -18 5z"/>
<path d="M1935 520 c-8 -16 -23 -34 -32 -39 -10 -6 -13 -11 -7 -11 6 0 18 8
26 18 19 21 41 62 34 62 -3 0 -12 -13 -21 -30z"/>
<path d="M1820 480 c-7 -5 0 -7 18 -6 17 1 33 3 35 6 9 8 -40 8 -53 0z"/>
<path d="M875 390 c-4 -17 -36 -61 -76 -104 -38 -41 -69 -78 -69 -82 0 -5 8 3
17 16 l18 25 6 -30 7 -30 1 34 c1 36 34 82 55 77 6 -2 8 -1 4 1 -4 3 3 19 16
36 23 30 44 87 33 87 -3 0 -8 -13 -12 -30z"/>
<path d="M1320 328 c-11 -18 -20 -40 -20 -48 1 -8 7 0 16 19 8 19 19 41 26 48
6 7 8 13 4 13 -3 0 -15 -15 -26 -32z"/>
<path d="M885 275 c17 -8 37 -14 45 -14 8 0 -1 7 -20 14 -46 18 -64 17 -25 0z"/>
<path d="M1842 238 c-32 -81 -34 -95 -20 -118 11 -19 10 -24 -11 -41 -13 -10
-19 -19 -14 -19 6 0 18 9 28 20 15 17 16 24 7 46 -10 21 -8 36 14 90 14 36 24
67 21 70 -2 3 -14 -19 -25 -48z"/>
<path d="M969 249 l23 -9 -28 -37 c-20 -27 -28 -47 -27 -75 2 -42 -5 -50 -62
-59 l-40 -6 35 -2 c51 -2 84 24 76 59 -4 21 3 40 25 74 17 25 36 46 42 47 15
1 -33 17 -53 17 -8 1 -4 -4 9 -9z"/>
<path d="M1040 230 c8 -5 24 -10 34 -10 26 0 18 6 -19 14 -22 5 -26 4 -15 -4z"/>
<path d="M1306 206 c7 -50 55 -145 85 -171 l24 -20 -21 25 c-28 33 -64 104
-80 160 l-14 45 6 -39z"/>
<path d="M1108 213 c7 -3 16 -2 19 1 4 3 -2 6 -13 5 -11 0 -14 -3 -6 -6z"/>
<path d="M505 185 c10 -52 58 -137 83 -146 37 -14 50 -10 15 6 -31 13 -57 52
-89 134 -13 33 -14 33 -9 6z"/>
<path d="M1178 193 c7 -3 16 -2 19 1 4 3 -2 6 -13 5 -11 0 -14 -3 -6 -6z"/>
<path d="M717 183 c-13 -22 -24 -83 -16 -89 12 -7 11 -51 -1 -57 -6 -3 -5 -4
2 -3 9 2 12 19 10 55 -1 28 2 61 9 72 10 19 7 40 -4 22z"/>
<path d="M1225 180 c19 -8 73 -14 64 -6 -2 2 -22 6 -44 9 -28 5 -34 4 -20 -3z"/>
<path d="M765 145 c4 -39 33 -76 59 -74 6 0 1 5 -11 11 -20 10 -35 35 -47 83
-3 11 -3 2 -1 -20z"/>
<path d="M1611 177 c-2 -18 43 -99 62 -112 12 -9 41 -14 67 -14 l45 2 -52 6
c-61 8 -65 10 -97 76 -14 28 -25 47 -25 42z"/>
<path d="M648 23 c6 -2 18 -2 25 0 6 3 1 5 -13 5 -14 0 -19 -2 -12 -5z"/>
<path d="M1438 13 c12 -2 30 -2 40 0 9 3 -1 5 -23 4 -22 0 -30 -2 -17 -4z"/>
</g>
</svg>
