<?xml version="1.0" standalone="no"?>
<!DOCTYPE svg PUBLIC "-//W3C//DTD SVG 20010904//EN"
 "http://www.w3.org/TR/2001/REC-SVG-20010904/DTD/svg10.dtd">
<svg version="1.0" xmlns="http://www.w3.org/2000/svg"
 width="225.000000pt" height="225.000000pt" viewBox="0 0 225.000000 225.000000"
 preserveAspectRatio="xMidYMid meet">

<g transform="translate(0.000000,225.000000) scale(0.100000,-0.100000)"
fill="#000000" stroke="none">
<path d="M1094 1785 c-39 -7 -81 -18 -93 -24 -13 -7 -35 -10 -52 -6 -35 8 -60
-6 -117 -67 -48 -51 -129 -160 -144 -193 -16 -35 -2 -85 37 -134 32 -40 35
-50 35 -108 0 -49 4 -65 16 -70 13 -5 59 6 100 23 12 5 5 -40 -29 -198 l-21
-96 -38 -11 c-26 -8 -43 -21 -54 -43 -20 -39 -24 -33 -60 93 -34 119 -40 131
-67 127 -30 -4 -81 -92 -97 -169 -13 -60 -8 -120 15 -171 5 -14 2 -18 -13 -18
-27 0 -45 -25 -37 -50 4 -11 28 -41 53 -65 26 -25 42 -45 35 -45 -18 0 -24
-32 -10 -54 18 -27 97 -67 148 -73 22 -3 39 -11 39 -18 0 -37 96 -57 268 -56
175 2 280 2 362 1 111 -2 233 12 253 28 39 33 24 117 -26 143 -12 6 -24 13
-26 15 -2 2 9 17 23 35 52 62 70 109 71 186 0 86 -21 123 -78 137 -31 8 -37
14 -37 36 0 14 -6 49 -14 76 -8 27 -17 75 -20 107 l-6 57 49 0 c27 0 53 6 58
13 6 6 9 34 7 61 -3 44 1 57 36 109 51 76 53 116 9 178 -112 156 -188 227
-232 215 -12 -3 -49 3 -82 13 -78 25 -173 31 -261 16z m264 -38 c39 -12 69
-29 79 -43 29 -45 28 -125 -3 -363 -7 -57 -19 -62 -21 -9 0 27 -5 54 -10 59
-12 12 -55 -34 -68 -74 -5 -17 -22 -38 -37 -46 -23 -13 -30 -13 -53 -1 -37 20
-41 37 -17 63 33 36 44 74 26 92 -19 19 -93 20 -119 1 -16 -12 -17 -17 -6 -44
7 -17 21 -38 32 -48 10 -9 19 -23 19 -30 0 -18 -40 -44 -67 -44 -26 0 -63 36
-63 61 0 10 -5 21 -11 25 -7 4 -10 -7 -7 -36 3 -42 2 -43 -36 -54 -44 -13 -52
-24 -33 -49 11 -16 15 -17 56 -2 54 19 100 19 125 0 28 -21 79 -19 109 5 14
11 39 20 56 20 29 0 31 -3 31 -34 0 -25 7 -40 26 -55 33 -26 54 -27 54 -3 0
23 50 49 60 32 14 -22 11 -133 -5 -180 -9 -26 -32 -64 -51 -84 -22 -22 -29
-36 -20 -36 8 0 32 20 54 45 29 33 42 41 50 33 31 -31 -6 -188 -91 -390 -10
-23 -17 -27 -42 -24 -60 7 -57 -8 5 -23 80 -20 110 -53 88 -97 -13 -28 -17
-29 -87 -32 -58 -2 -77 1 -92 14 -33 30 -42 82 -30 164 6 40 10 75 7 77 -8 8
-27 -70 -33 -139 l-6 -68 -37 0 -37 0 -5 77 c-3 43 -13 94 -22 113 -9 19 -14
27 -12 18 3 -10 8 -57 12 -105 6 -88 6 -88 -25 -120 -28 -31 -34 -33 -95 -33
-68 0 -96 14 -96 50 0 48 31 72 110 85 l45 8 -29 12 c-20 8 -25 14 -15 18 8 3
9 6 2 6 -6 1 -18 -6 -26 -14 -21 -21 -28 -9 -78 134 -35 101 -40 127 -31 142
7 10 12 22 12 26 0 5 -4 1 -10 -7 -5 -8 -12 -11 -16 -8 -12 12 -16 132 -6 158
8 18 11 20 11 7 1 -24 48 -93 77 -112 36 -23 41 -18 12 13 -15 15 -36 50 -48
77 -24 56 -39 155 -23 155 6 0 8 11 5 25 -5 29 2 30 52 10 47 -20 46 -7 -4 28
-39 27 -39 29 -26 55 25 48 27 94 12 226 -9 71 -13 140 -10 155 18 80 24 89
77 110 111 44 236 47 355 8z m-418 -10 c0 -2 -7 -19 -17 -37 -19 -39 -22 -118
-9 -271 10 -120 6 -149 -27 -180 -24 -23 -87 -52 -95 -44 -3 3 -6 40 -6 82 -1
59 -4 77 -16 80 -13 4 -13 3 0 -6 8 -5 12 -13 8 -16 -4 -4 -15 6 -24 22 -10
15 -24 31 -30 36 -27 16 -27 66 -1 110 39 65 134 179 169 205 30 20 48 27 48
19z m587 -53 c76 -80 153 -193 153 -224 0 -15 -17 -49 -39 -78 -37 -51 -39
-52 -45 -27 -4 16 -13 25 -26 25 -10 0 -21 4 -25 9 -3 6 -20 1 -40 -10 -45
-27 -50 -16 -36 86 16 113 13 184 -9 233 -17 38 -17 42 -2 42 9 0 40 -25 69
-56z m-309 -271 c-10 -2 -28 -2 -40 0 -13 2 -5 4 17 4 22 1 32 -1 23 -4z m180
-82 c2 -13 -1 -28 -7 -34 -8 -8 -11 -3 -12 19 -1 29 -1 29 -9 4 -5 -15 -8 -18
-9 -8 -3 46 31 63 37 19z m-1 -77 c-3 -3 -12 -4 -19 -1 -8 3 -5 6 6 6 11 1 17
-2 13 -5z m-338 -14 c-24 -14 -79 -22 -79 -11 0 9 29 16 75 19 17 1 18 0 4 -8z
m386 -17 c11 -14 10 -20 -4 -30 -21 -16 -28 -16 -28 0 0 6 -4 20 -8 30 -10 23
23 23 40 0z m-225 -3 c0 -5 -11 -10 -25 -10 -14 0 -25 5 -25 10 0 6 11 10 25
10 14 0 25 -4 25 -10z m174 -16 c8 -21 8 -64 0 -64 -11 0 -44 42 -44 55 0 27
34 35 44 9z m-753 -216 c11 -40 34 -116 51 -168 16 -52 37 -117 45 -145 8 -27
28 -67 45 -88 16 -21 28 -39 27 -41 -2 -1 -16 -10 -32 -19 -15 -10 -33 -30
-40 -46 l-12 -29 -48 13 c-53 13 -103 45 -96 60 2 6 19 10 36 11 48 1 50 10 6
32 -56 30 -117 87 -108 102 5 9 4 11 -3 6 -7 -4 -12 -1 -12 8 0 12 10 16 40
16 22 0 40 5 40 10 0 6 -4 10 -9 10 -30 0 -60 189 -32 198 6 2 8 8 5 13 -9 15
55 129 72 129 2 0 13 -33 25 -72z m879 -20 c0 -16 -3 -19 -11 -11 -6 6 -8 16
-5 22 11 17 16 13 16 -11z m-679 -135 c6 -32 22 -91 36 -131 13 -39 21 -77 17
-84 -4 -6 -3 -8 4 -5 6 4 17 -12 26 -39 l16 -46 -30 -28 c-23 -21 -30 -37 -30
-64 0 -44 -14 -51 -69 -36 -30 8 -42 17 -47 35 -8 31 13 65 52 85 16 8 31 15
33 17 2 1 -13 21 -34 44 -52 58 -77 119 -77 189 0 65 13 97 45 110 39 16 45
11 58 -47z m754 47 c29 -11 55 -62 55 -109 0 -54 -32 -129 -83 -192 -28 -34
-45 -59 -38 -55 32 20 91 -34 91 -83 0 -22 -25 -45 -40 -36 -5 3 -10 1 -10 -5
0 -6 -15 -10 -33 -8 -31 2 -33 4 -33 37 1 20 6 39 11 43 6 5 4 8 -5 8 -8 0
-27 12 -43 25 -22 19 -25 28 -17 42 18 33 88 250 95 297 8 49 10 51 50 36z"/>
<path d="M1020 1570 c-27 -27 -35 -65 -20 -100 29 -70 110 -32 110 51 0 21
-42 69 -60 69 -5 0 -19 -9 -30 -20z m67 -46 c1 -5 -2 -16 -7 -24 -12 -20 -33
0 -24 24 7 17 25 17 31 0z"/>
<path d="M1332 1537 c-26 -15 -56 -54 -45 -60 5 -2 31 -1 58 3 l50 6 -35 10
-35 11 40 21 c35 19 37 21 15 21 -14 0 -35 -5 -48 -12z"/>
<path d="M1230 1300 c8 -5 20 -10 25 -10 6 0 3 5 -5 10 -8 5 -19 10 -25 10 -5
0 -3 -5 5 -10z"/>
<path d="M1081 1287 c10 -9 59 -17 59 -9 0 4 -14 9 -32 10 -18 2 -30 1 -27 -1z"/>
<path d="M921 1144 c0 -11 3 -14 6 -6 3 7 2 16 -1 19 -3 4 -6 -2 -5 -13z"/>
<path d="M932 725 c0 -16 2 -22 5 -12 2 9 2 23 0 30 -3 6 -5 -1 -5 -18z"/>
<path d="M1450 695 c-7 -9 -10 -18 -7 -21 3 -3 10 4 17 15 13 25 8 27 -10 6z"/>
<path d="M1375 620 c-3 -5 -1 -10 4 -10 6 0 11 5 11 10 0 6 -2 10 -4 10 -3 0
-8 -4 -11 -10z"/>
<path d="M954 416 c0 -19 4 -22 26 -17 l25 5 -24 4 c-16 3 -20 6 -12 12 10 6
10 8 -1 13 -9 3 -14 -3 -14 -17z"/>
<path d="M580 685 c-11 -13 -10 -14 4 -9 9 3 16 10 16 15 0 13 -6 11 -20 -6z"/>
<path d="M630 511 c0 -6 4 -12 8 -15 5 -3 9 1 9 9 0 8 -4 15 -9 15 -4 0 -8 -4
-8 -9z"/>
<path d="M785 829 c-4 -6 -5 -12 -2 -15 2 -3 7 2 10 11 7 17 1 20 -8 4z"/>
<path d="M806 807 c3 -10 9 -15 12 -12 3 3 0 11 -7 18 -10 9 -11 8 -5 -6z"/>
<path d="M791 764 c0 -11 3 -14 6 -6 3 7 2 16 -1 19 -3 4 -6 -2 -5 -13z"/>
<path d="M771 744 c0 -11 3 -14 6 -6 3 7 2 16 -1 19 -3 4 -6 -2 -5 -13z"/>
<path d="M800 653 c0 -15 18 -35 23 -27 3 5 -1 15 -9 22 -8 7 -14 9 -14 5z"/>
<path d="M869 590 c-5 -28 -3 -33 14 -36 18 -2 21 5 11 30 -7 18 -23 22 -25 6z
m21 -14 c0 -3 -4 -8 -10 -11 -5 -3 -10 -1 -10 4 0 6 5 11 10 11 6 0 10 -2 10
-4z"/>
<path d="M868 523 c7 -3 16 -2 19 1 4 3 -2 6 -13 5 -11 0 -14 -3 -6 -6z"/>
<path d="M1520 500 c-12 -7 -10 -9 7 -7 12 0 19 5 17 9 -6 10 -6 10 -24 -2z"/>
</g>
</svg>
