<svg width="54" height="56" viewBox="0 0 54 56" fill="none" xmlns="http://www.w3.org/2000/svg">
<path d="M34.261 52.7612C30.4274 56.9809 23.6819 57.0213 19.7975 52.8478C18.0626 50.9837 19.4101 47.9975 21.9933 47.9821L32.0064 47.9221C34.5896 47.9066 35.9732 50.8764 34.261 52.7612Z" fill="white"/>
<path fill-rule="evenodd" clip-rule="evenodd" d="M43.6916 47.578C41.67 49.1488 38.8148 48.6299 37.1034 46.734L31.6658 40.7104C29.4744 38.2828 25.6276 38.2828 23.4362 40.7104L17.5513 47.2296C15.8829 49.0778 13.1208 49.626 11.0949 48.1666C4.36943 43.3217 0 35.4835 0 26.6384C0 11.9264 12.0883 0 27 0C41.9117 0 54 11.9264 54 26.6384C54 35.1338 49.9692 42.7004 43.6916 47.578ZM18.8487 29.6226L23.952 35.5807C25.5729 37.4731 28.4271 37.4731 30.048 35.5807L35.1513 29.6226C36.7894 27.71 35.9447 24.683 33.5737 23.9693C29.2801 22.6769 24.7199 22.6769 20.4263 23.9693C18.0553 24.683 17.2106 27.71 18.8487 29.6226ZM19 17C19 19.2091 17.2091 21 15 21C12.7909 21 11 19.2091 11 17C11 14.7909 12.7909 13 15 13C17.2091 13 19 14.7909 19 17ZM39 21C41.2091 21 43 19.2091 43 17C43 14.7909 41.2091 13 39 13C36.7909 13 35 14.7909 35 17C35 19.2091 36.7909 21 39 21Z" fill="white"/>
</svg>
