<svg width="592" height="305" viewBox="0 0 592 305" fill="none" xmlns="http://www.w3.org/2000/svg">
<g clip-path="url(#clip0_201_31)">
<path d="M91.6526 87.0785C90.2197 66.8236 94.0851 38.9241 97.4423 38.4985C100.616 38.1062 113.187 57.3179 118.61 65.8722C112.312 67.2826 106.889 71.4888 102.082 75.6032C98.142 79.0583 94.6016 82.8723 91.6526 87.0701V87.0785Z" fill="#FA9700"/>
<path d="M102.082 75.6115C106.889 71.4971 112.312 67.2826 118.61 65.8805C120.159 68.3258 121.134 69.9031 121.134 69.9031L93.3684 98.754C92.5104 95.4575 91.9606 91.4432 91.6523 87.0868C94.6097 82.8889 98.1418 79.075 102.082 75.6199V75.6115Z" fill="#F27006"/>
<path d="M165.053 87.0785C164.745 91.4349 164.195 95.4492 163.337 98.7457L135.571 69.8948C135.571 69.8948 136.546 68.3175 138.095 65.8722C144.393 67.2826 149.808 71.4888 154.623 75.6032C158.564 79.0583 162.104 82.8723 165.053 87.0701V87.0785Z" fill="#F27006"/>
<path d="M159.263 38.4985C162.62 38.9241 166.486 66.8152 165.053 87.0785C162.104 82.8806 158.563 79.0667 154.623 75.6116C149.808 71.4972 144.385 67.2826 138.095 65.8805C143.527 57.3263 156.089 38.1062 159.263 38.5068V38.4985Z" fill="#FA9700"/>
<path d="M141.277 194.629C127.524 201.264 112.012 197.541 98.0254 192.292L100.5 150.564L154.831 146.733C157.647 151.966 160.388 157.34 163.045 162.807C160.071 175.976 153.773 188.486 141.269 194.629H141.277Z" fill="#F27006"/>
<path d="M141.277 194.629C153.773 188.486 160.071 175.976 163.053 162.807C194.543 227.519 214.911 305 214.911 305H91.3442L98.0253 192.3C112.012 197.55 127.515 201.272 141.277 194.637V194.629Z" fill="#FA9700"/>
<path d="M96.6427 39.0994C104.015 46.285 104.732 58.8619 103.299 69.1353C101.949 77.9817 97.6924 84.9754 91.986 90.8925C89.8784 72.0396 93.2855 43.5643 96.6344 39.0994H96.6427Z" fill="#FEB8AC"/>
<path d="M160.063 39.0994C152.69 46.285 151.965 58.8619 153.406 69.1353C154.756 77.9817 159.013 84.9754 164.719 90.8925C166.827 72.0396 163.42 43.5643 160.071 39.0994H160.063Z" fill="#FEB8AC"/>
<path d="M128.357 193.961C159.113 193.961 164.869 140.357 167.169 114.577C169.459 88.7977 150.857 66.8403 128.357 66.8403C105.856 66.8403 87.2539 88.7977 89.5448 114.577C91.8357 140.357 97.6004 193.961 128.357 193.961Z" fill="#FFF3DB"/>
<path d="M133.297 67.2074C153.498 70.1368 169.285 90.7088 167.16 114.569C166.019 127.438 164.003 147.251 158.447 163.858C152.982 141.776 135.146 130.768 133.522 118.141C131.931 105.781 132.822 78.8079 133.297 67.1991V67.2074Z" fill="#FA9700"/>
<path d="M123.408 67.2074C123.875 78.8162 124.775 105.789 123.184 118.149C121.559 130.776 103.723 141.784 98.2586 163.867C92.7022 147.259 90.6945 127.446 89.5449 114.577C87.4206 90.7087 103.207 70.1451 123.408 67.2157V67.2074Z" fill="#FA9700"/>
<path d="M111.179 126.445C107.039 126.445 103.807 121.913 103.807 116.121C103.807 115.379 104.406 114.778 105.148 114.778C105.889 114.778 106.489 115.379 106.489 116.121C106.489 120.261 108.638 123.758 111.187 123.758C113.737 123.758 115.878 120.261 115.878 116.121C115.878 115.379 116.477 114.778 117.219 114.778C117.96 114.778 118.56 115.379 118.56 116.121C118.56 121.913 115.319 126.445 111.187 126.445H111.179Z" fill="#593A42"/>
<path d="M148.8 126.445C144.668 126.445 141.427 121.913 141.427 116.121C141.427 115.379 142.027 114.778 142.768 114.778C143.51 114.778 144.11 115.379 144.11 116.121C144.11 120.261 146.259 123.758 148.808 123.758C151.357 123.758 153.498 120.261 153.498 116.121C153.498 115.379 154.098 114.778 154.839 114.778C155.581 114.778 156.181 115.379 156.181 116.121C156.181 121.913 152.94 126.445 148.808 126.445H148.8Z" fill="#593A42"/>
<path d="M142.76 175.342C142.76 181.685 136.304 186.826 128.357 186.826C120.409 186.826 113.945 181.685 113.945 175.342C113.945 168.999 120.393 163.858 128.357 163.858C136.321 163.858 142.76 168.999 142.76 175.342Z" fill="#593A42"/>
<path d="M123.408 165.845C120.359 166.629 117.969 168.891 116.869 171.82C116.094 173.873 119.376 174.758 120.143 172.721C120.818 170.91 122.475 169.6 124.316 169.124C126.432 168.574 125.533 165.302 123.417 165.845H123.408Z" fill="#936170"/>
<path d="M117.802 173.923C116.969 173.698 115.886 174.199 115.711 175.108C115.628 175.559 115.52 175.993 115.436 176.444C115.27 177.353 115.669 178.271 116.619 178.538C117.444 178.764 118.544 178.263 118.702 177.353C118.785 176.903 118.893 176.46 118.977 176.018C119.143 175.108 118.743 174.19 117.794 173.923H117.802Z" fill="#936170"/>
<path d="M109.655 255.978C112.654 240.305 127.624 176.627 151.591 209.968C162.237 224.64 167.235 243.643 171.226 260.643C174.716 275.173 177.115 290.128 179.14 305H103.632C104.99 288.567 106.672 272.177 109.655 255.978Z" fill="#FFF3DB"/>
<path d="M529.488 102.902C529.963 103.261 532.562 112.291 534.119 117.841L521.174 122.122V114.227C521.174 114.227 528.805 102.384 529.488 102.902Z" fill="#FEB8AC"/>
<path d="M504.138 110.421C505.513 107.333 524.523 92.0943 530.696 93.1208C536.869 94.1473 540.376 115.779 540.376 115.779L534.128 117.849C532.57 112.291 529.971 103.269 529.496 102.91C528.813 102.393 521.182 114.235 521.182 114.235C521.182 114.235 510.311 127.28 508.77 127.797C507.229 128.314 502.772 113.518 504.146 110.43L504.138 110.421Z" fill="#352328"/>
<path d="M566.667 86.2523C566.15 85.2258 555.512 82.9892 555.512 82.9892C555.512 82.9892 550.372 82.1296 550.031 81.27C549.689 80.4104 556.537 74.4349 561.052 74.51C570.965 79.2503 586.369 103.753 575.581 152.158L571.682 147.125C578.438 105.739 566.675 86.2523 566.675 86.2523H566.667Z" fill="#352328"/>
<path d="M555.521 82.9891C555.521 82.9891 566.159 85.2174 566.675 86.2523C566.675 86.2523 578.438 105.739 571.682 147.125L548.34 116.973L555.521 82.9891Z" fill="#FEB8AC"/>
<path d="M475.389 152.016C477.83 140.774 508.078 135.4 508.078 135.4C527.105 100.699 558.328 109.495 572.965 135.4C587.601 161.305 591.992 305 591.992 305H502.422L520.582 179.623C478.263 178.939 472.948 163.258 475.389 152.016Z" fill="#593A42"/>
<path d="M552.488 305H502.422L520.582 179.623C520.582 179.623 526.98 180.4 535.552 179.774C535.552 179.774 547.957 272.936 552.488 305Z" fill="#352328"/>
<path d="M530.696 136.326C530.696 144.171 535.761 150.531 542 150.531C548.24 150.531 553.305 144.171 553.305 136.326C553.305 128.481 548.24 122.122 542 122.122C535.761 122.122 530.696 128.481 530.696 136.326Z" fill="#352328"/>
<path d="M537.377 136.326C537.377 138.788 538.718 140.791 540.376 140.791C542.034 140.791 543.375 138.796 543.375 136.326C543.375 133.856 542.034 131.861 540.376 131.861C538.718 131.861 537.377 133.856 537.377 136.326Z" fill="#191113"/>
<path d="M518.175 135.517C518.175 137.979 519.516 139.973 521.174 139.973C522.832 139.973 524.173 137.979 524.173 135.517C524.173 133.055 522.832 131.052 521.174 131.052C519.516 131.052 518.175 133.046 518.175 135.517Z" fill="#191113"/>
<path d="M473.981 150.531C473.981 155.505 479.046 159.544 485.286 159.544C491.526 159.544 496.59 155.505 496.59 150.531C496.59 145.556 491.526 141.517 485.286 141.517C479.046 141.517 473.981 145.548 473.981 150.531Z" fill="#191113"/>
<path d="M488.643 143.078C491.034 143.695 492.917 145.465 493.783 147.768C494.391 149.379 491.817 150.071 491.217 148.477C490.684 147.059 489.385 146.024 487.943 145.657C486.286 145.231 486.985 142.652 488.651 143.086L488.643 143.078Z" fill="#593A42"/>
<path d="M493.042 149.42C493.691 149.245 494.549 149.637 494.674 150.355C494.741 150.706 494.824 151.056 494.891 151.407C495.016 152.124 494.708 152.842 493.958 153.042C493.308 153.218 492.45 152.825 492.325 152.108C492.267 151.757 492.175 151.407 492.109 151.056C491.984 150.338 492.292 149.621 493.042 149.412V149.42Z" fill="#593A42"/>
<path d="M523.815 164.1C523.815 164.1 538.568 171.211 534.969 179.966C531.37 188.72 512.96 170.827 512.96 170.827C512.96 170.827 518.133 169.742 523.815 164.109V164.1Z" fill="#FEB8AC"/>
<path d="M527.73 176.836C524.948 173.865 521.582 171.211 517.975 169.3C517.217 168.899 517.892 167.748 518.65 168.148C522.332 170.101 525.823 172.855 528.672 175.893C529.255 176.519 528.322 177.462 527.73 176.836Z" fill="#FC8686"/>
<path d="M528.08 157.482C526.272 163.233 522.415 167.289 517.067 169.926C509.778 173.523 502.73 172.63 495.224 170.31C494.408 170.059 494.758 168.766 495.574 169.024C502.255 171.094 508.237 171.979 514.926 169.417C520.616 167.238 524.956 162.974 526.789 157.132C527.047 156.314 528.33 156.665 528.072 157.482H528.08Z" fill="#352328"/>
<path d="M396.099 151.44C394.033 153.677 392.076 155.947 390.334 158.342C392.7 133.672 401.439 118.124 404.58 118.116C408.487 118.116 412.327 132.729 414.301 141.634C406.887 142.635 401.639 145.556 396.108 151.44H396.099Z" fill="#FA9700"/>
<path d="M396.099 151.44C401.631 145.556 406.879 142.644 414.293 141.634C415.159 145.531 415.668 148.344 415.668 148.344L389.81 166.396C389.901 163.616 390.084 160.929 390.326 158.342C392.075 155.947 394.025 153.677 396.091 151.44H396.099Z" fill="#FF740C"/>
<path d="M468.275 160.487C468.425 162.406 468.541 164.376 468.608 166.396L442.75 148.344C442.75 148.344 443.208 145.799 444 142.202C448.915 143.729 453.746 146.95 457.612 149.537C461.744 152.475 465.392 156.264 468.266 160.495L468.275 160.487Z" fill="#FF740C"/>
<path d="M453.846 118.116C457.07 118.116 466.225 134.59 468.275 160.495C465.401 156.264 461.752 152.475 457.62 149.537C453.755 146.959 448.923 143.729 444.008 142.202C445.94 133.363 449.856 118.116 453.854 118.116H453.846Z" fill="#FA9700"/>
<path d="M404.571 124.784C405.804 124.559 411.602 147.009 410.194 148.786C408.787 150.564 395.924 160.771 395.258 159.227C394.591 157.674 402.139 125.226 404.58 124.784H404.571Z" fill="#FEB8AC"/>
<path d="M453.846 124.784C452.613 124.559 446.815 147.009 448.223 148.786C449.631 150.564 462.493 160.771 463.16 159.227C463.826 157.674 456.279 125.226 453.838 124.784H453.846Z" fill="#FEB8AC"/>
<path d="M394.392 305C394.392 305 377.414 219.541 384.378 182.912C391.343 146.283 418.767 142.36 429.213 142.36C439.66 142.36 467.084 146.283 474.04 182.912C481.004 219.541 464.026 305 464.026 305H394.383H394.392Z" fill="#FFF3DB"/>
<path d="M430.796 142.393C442.192 142.802 467.4 148.002 474.04 182.912C481.004 219.541 464.026 305 464.026 305H461.96C478.396 248.6 475.597 177.746 430.796 142.393Z" fill="#FFF9EE"/>
<path d="M432.887 177.671C428.313 166.796 431.404 147.676 428.305 147.676C425.206 147.676 428.305 166.796 423.723 177.671C420.191 186.083 397.532 176.577 387.436 171.837C397.266 145.481 419.925 142.36 429.205 142.36C438.485 142.36 460.727 145.406 470.707 171.103C461.61 175.484 436.611 186.534 432.887 177.671Z" fill="#FA9700"/>
<path d="M382.804 211.921C385.569 221.836 389.935 231.383 395.258 240.58C405.904 259.032 418.55 276.141 423.881 297.038C424.456 299.2 425.239 301.987 425.889 305H394.391C394.391 305 383.928 252.297 382.804 211.921Z" fill="#FA9700"/>
<path d="M463.16 240.58C468.483 231.383 472.848 221.827 475.614 211.921C474.49 252.289 464.026 305 464.026 305H432.529C433.187 301.987 433.962 299.2 434.536 297.038C439.86 276.149 452.505 259.032 463.16 240.58Z" fill="#FA9700"/>
<path d="M430.796 142.385C440.759 142.744 461.269 146.775 470.707 171.103C467.7 172.555 462.952 174.725 457.812 176.669C451.431 163.391 442.559 151.665 430.788 142.385H430.796Z" fill="#FF9E10"/>
<path d="M464.026 305H461.96C469.216 280.088 472.723 252.364 470.516 226.125C472.54 221.477 474.273 216.745 475.614 211.929C474.49 252.297 464.026 305.008 464.026 305.008V305Z" fill="#FF9E10"/>
<path d="M437.493 170.393C438.002 170.393 438.41 169.984 438.41 169.475C438.41 166.638 439.884 164.242 441.625 164.242C443.367 164.242 444.841 166.638 444.841 169.475C444.841 169.984 445.249 170.393 445.757 170.393C446.266 170.393 446.674 169.984 446.674 169.475C446.674 165.511 444.458 162.406 441.625 162.406C438.793 162.406 436.577 165.511 436.577 169.475C436.577 169.984 436.985 170.393 437.493 170.393Z" fill="#593A42"/>
<path d="M412.827 170.393C413.335 170.393 413.743 169.984 413.743 169.475C413.743 166.638 415.218 164.242 416.959 164.242C418.7 164.242 420.175 166.638 420.175 169.475C420.175 169.984 420.583 170.393 421.091 170.393C421.599 170.393 422.007 169.984 422.007 169.475C422.007 165.511 419.791 162.406 416.959 162.406C414.127 162.406 411.911 165.511 411.911 169.475C411.911 169.984 412.319 170.393 412.827 170.393Z" fill="#593A42"/>
<path d="M445.749 188.837C441.692 196.023 434.961 199.494 426.78 199.094C418.8 198.71 410.669 193.252 409.553 184.906C409.445 184.063 410.719 183.704 410.836 184.556C411.96 192.951 419.958 197.433 427.747 197.809C435.053 198.159 441.067 194.437 444.608 188.161C445.033 187.41 446.182 188.086 445.757 188.837H445.749Z" fill="#593A42"/>
<path d="M427.864 198.326C427.847 194.838 428.247 191.332 427.664 187.861C427.522 187.018 428.805 186.659 428.947 187.51C429.555 191.107 429.172 194.704 429.197 198.326C429.197 199.186 427.872 199.186 427.864 198.326Z" fill="#593A42"/>
<path d="M417.092 182.002C417.092 186.976 422.157 191.015 428.397 191.015C434.636 191.015 439.701 186.984 439.701 182.002C439.701 177.02 434.636 172.989 428.397 172.989C422.157 172.989 417.092 177.02 417.092 182.002Z" fill="#593A42"/>
<path d="M432.279 174.541C434.67 175.158 436.553 176.928 437.419 179.231C438.027 180.842 435.453 181.535 434.853 179.941C434.32 178.522 433.02 177.487 431.579 177.12C429.913 176.694 430.621 174.115 432.287 174.549L432.279 174.541Z" fill="#936170"/>
<path d="M436.686 180.884C437.336 180.708 438.194 181.101 438.319 181.818C438.385 182.169 438.477 182.519 438.535 182.87C438.66 183.588 438.352 184.305 437.602 184.514C436.952 184.698 436.094 184.297 435.969 183.579C435.911 183.229 435.819 182.887 435.753 182.528C435.62 181.818 435.936 181.092 436.686 180.892V180.884Z" fill="#936170"/>
<path d="M350.19 62.3503C355.188 63.2934 359.703 34.2839 371.741 30.9373C383.779 27.5907 404.255 23.2176 396.591 16.2073C388.935 9.19691 358.537 6.10068 350.923 17.2505C343.317 28.4086 338.461 60.1471 350.19 62.3587V62.3503Z" fill="#352328"/>
<path d="M350.923 17.2338C358.529 6.084 388.935 9.18858 396.591 16.1906C398.465 17.9014 398.64 19.4621 397.691 20.8808C395.483 20.7974 393.259 20.8725 390.976 21.1562C375.532 22.5583 353.172 33.3492 343.167 47.3282C343.101 36.8377 346.55 23.6432 350.923 17.2338Z" fill="#593A42"/>
<path d="M324.399 115.596C330.788 121.037 340.918 124.751 340.918 124.751C339.852 155.855 347.749 193.486 357.104 226.301C313.019 169.534 324.399 115.604 324.399 115.604V115.596Z" fill="#EFDCBD"/>
<path d="M294.375 89.9995C299.482 64.0862 308.429 38.4901 340.818 44.5658C373.207 50.6414 370.383 83.2812 369.425 83.2812C368.467 83.2812 402.639 120.394 384.545 131.269C366.451 142.143 340.918 124.742 340.918 124.742C340.918 124.742 330.788 121.029 324.399 115.587C324.399 115.587 313.019 169.517 357.104 226.284C369.542 269.882 384.553 304.983 384.553 304.983H272.025C269.151 229.48 289.111 116.714 294.384 89.9911L294.375 89.9995Z" fill="#FFF3DB"/>
<path d="M325.898 101.817C325.898 101.817 311.203 97.5606 308.262 105.898C305.322 114.244 329.272 113.275 329.272 113.275C329.272 113.275 326.34 109.286 325.898 101.817Z" fill="#FEB8AC"/>
<path d="M394.7 115.187C394.7 120.578 389.218 124.943 382.454 124.943C375.689 124.943 370.208 120.578 370.208 115.187C370.208 109.795 375.689 105.431 382.454 105.431C389.218 105.431 394.7 109.804 394.7 115.187Z" fill="#593A42"/>
<path d="M344.4 88.8728C347.916 88.8728 350.665 85.0171 350.665 80.1015C350.665 79.4756 350.157 78.9581 349.524 78.9581C348.891 78.9581 348.382 79.4672 348.382 80.1015C348.382 83.6233 346.558 86.5944 344.392 86.5944C342.226 86.5944 340.402 83.6233 340.402 80.1015C340.402 79.4756 339.894 78.9581 339.26 78.9581C338.627 78.9581 338.119 79.4672 338.119 80.1015C338.119 85.0171 340.868 88.8728 344.384 88.8728H344.4Z" fill="#593A42"/>
<path d="M365.093 88.8728C368.609 88.8728 371.358 85.0171 371.358 80.1015C371.358 79.4756 370.85 78.9581 370.216 78.9581C369.583 78.9581 369.075 79.4672 369.075 80.1015C369.075 83.6233 367.251 86.5944 365.085 86.5944C362.919 86.5944 361.095 83.6233 361.095 80.1015C361.095 79.4756 360.586 78.9581 359.953 78.9581C359.32 78.9581 358.812 79.4672 358.812 80.1015C358.812 85.0171 361.561 88.8728 365.077 88.8728H365.093Z" fill="#593A42"/>
<path d="M315.218 106.991C319.125 106.666 323.191 106.966 327.023 107.859C327.806 108.043 327.472 109.244 326.689 109.061C322.966 108.185 319.034 107.918 315.218 108.235C314.419 108.301 314.427 107.058 315.218 106.991Z" fill="#FC8686"/>
<path d="M378.256 107.116C375.665 107.784 373.632 109.704 372.691 112.191C372.041 113.935 374.823 114.686 375.473 112.958C376.048 111.414 377.456 110.304 379.022 109.904C380.821 109.437 380.055 106.649 378.256 107.116Z" fill="#936170"/>
<path d="M373.491 113.985C372.782 113.793 371.858 114.219 371.716 114.995C371.649 115.379 371.549 115.754 371.483 116.13C371.341 116.898 371.683 117.682 372.491 117.907C373.191 118.099 374.124 117.674 374.265 116.898C374.332 116.514 374.432 116.138 374.498 115.763C374.64 114.995 374.299 114.21 373.499 113.985H373.491Z" fill="#936170"/>
<path d="M318.642 63.0514C323.482 61.4991 316.335 33.0071 325.34 24.3359C334.337 15.6565 347.616 2.87093 337.552 0.350547C327.489 -2.16984 299.274 9.58918 297.874 23.0257C296.475 36.4622 307.279 66.6984 318.642 63.0597V63.0514Z" fill="#352328"/>
<path d="M327.406 223.73C325.382 209.008 336.145 198.318 348.891 194.036C351.323 205.036 354.139 215.91 357.096 226.301C359.812 235.831 362.661 244.961 365.435 253.407C349.174 254.4 329.314 239.069 327.398 223.738L327.406 223.73Z" fill="#593A42"/>
<path d="M299.307 117.473C296.716 128.732 292.784 138.646 285.245 143.145C289.011 118.592 292.559 99.2047 294.375 90.0078C295.292 85.376 296.325 80.7525 297.599 76.3209C306.005 88.8144 303.772 99.5969 299.307 117.473Z" fill="#593A42"/>
<path d="M319.742 305H272.025C271.408 288.701 271.85 270.658 272.983 252.122C278.914 253.04 285.187 255.026 291.593 257.513C312.811 266.017 324.599 283.961 319.75 305.008L319.742 305Z" fill="#593A42"/>
<path d="M328.139 95.1404C325.407 101.325 326.631 107.375 329.88 113.075C332.704 118.024 337.561 120.603 342.543 122.898C343.267 123.232 342.634 124.308 341.918 123.975C336.153 121.329 331.463 118.366 328.256 112.741C324.99 107.008 324.39 100.582 327.064 94.5228C327.389 93.7884 328.464 94.4227 328.139 95.1487V95.1404Z" fill="#593A42"/>
<path d="M348.89 194.036V194.053C349.474 196.682 350.073 199.294 350.698 201.898C350.815 202.382 350.931 202.866 351.048 203.35C351.54 205.378 352.039 207.398 352.548 209.401C352.731 210.135 352.922 210.861 353.106 211.587C353.572 213.407 354.055 215.218 354.539 217.02C354.722 217.721 354.913 218.422 355.105 219.115C355.763 221.527 356.421 223.93 357.096 226.292C349.823 216.928 344.067 207.64 339.51 198.651C342.376 196.707 345.558 195.146 348.882 194.028L348.89 194.036Z" fill="#352328"/>
<path d="M297.874 23.0173C299.274 9.58081 327.489 -2.16986 337.552 0.34218C340.443 1.06825 341.401 2.63723 341.093 4.7153C332.337 9.78945 324.124 15.9068 317.867 23.8018C307.613 36.9629 310.17 50.124 316.026 63.2851C305.68 62.0916 296.583 35.4106 297.874 23.0173Z" fill="#593A42"/>
<path d="M295.716 305C295.716 305 301.29 213.907 275.132 170.502C248.966 127.104 218.084 143.003 206.072 161.046C206.072 161.046 188.486 172.646 171.758 172.221C171.758 172.221 179.481 203.158 212.936 189.413C212.936 189.413 241.668 191.558 247.249 225.933C252.823 260.309 211.653 305 211.653 305H295.716Z" fill="#FF740C"/>
<path d="M205.205 161.597C221.233 172.363 212.936 189.413 212.936 189.413C179.481 203.166 171.758 172.221 171.758 172.221C186.303 172.596 201.49 163.875 205.205 161.588V161.597Z" fill="#FFF3DB"/>
<path d="M265.593 236.382C280.155 266.118 281.938 290.262 280.98 305H211.645C211.645 305 252.823 260.309 247.241 225.933C241.668 191.558 212.928 189.413 212.928 189.413C212.928 189.413 241.01 186.191 265.585 236.382H265.593Z" fill="#ED4714"/>
<path d="M166.36 173.815C169.768 177.495 174.599 178.555 177.157 176.177C179.706 173.806 179.006 168.899 175.599 165.219C172.192 161.538 167.36 160.487 164.811 162.857C162.262 165.227 162.961 170.134 166.369 173.815H166.36Z" fill="#593A42"/>
<path d="M236.062 148.97C236.778 146.825 247.95 140.616 251.19 142.435C254.431 144.254 259.92 175.701 255.68 181.985C251.432 188.261 240.51 159.093 238.894 157.073C237.278 155.045 237.886 163.758 236.062 162.74C234.237 161.73 234.446 153.827 236.062 148.97Z" fill="#593A42"/>
<path d="M215.085 163.366C215.085 165.728 216.285 167.647 217.768 167.647C219.251 167.647 220.45 165.728 220.45 163.366C220.45 161.004 219.251 159.085 217.768 159.085C216.285 159.085 215.085 160.996 215.085 163.366Z" fill="#593A42"/>
<path d="M208.138 174.432C210.37 179.498 210.079 186.742 203.448 187.81C202.348 187.986 201.873 186.3 202.981 186.125C208.396 185.248 208.438 179.431 206.63 175.317C206.18 174.299 207.688 173.406 208.138 174.432Z" fill="#593A42"/>
<path d="M170.775 162.807C171.55 163.241 172.25 163.717 172.875 164.359C174.458 165.978 171.867 168.332 170.292 166.721C169.884 166.304 169.376 166.037 168.876 165.753C166.91 164.651 168.818 161.714 170.775 162.815V162.807Z" fill="#936170"/>
<path d="M175.441 166.512C175.982 166.946 176.365 167.372 176.749 167.948C177.273 168.749 176.79 169.901 176.015 170.31C175.107 170.785 174.183 170.368 173.658 169.575C173.616 169.533 173.583 169.492 173.541 169.45C172.8 168.857 172.467 167.889 173.025 167.03C173.508 166.295 174.699 165.92 175.441 166.512Z" fill="#936170"/>
<path d="M70.7178 199.962C70.7178 199.962 71.4509 191.808 74.0167 184.514C76.041 186.751 78.2653 188.812 80.6978 190.59L75.4662 198.635L70.7095 199.962H70.7178Z" fill="#EFDCBD"/>
<path d="M74.0249 184.514C74.7913 182.327 75.7244 180.224 76.8573 178.438C77.2655 177.796 77.7403 177.195 78.2652 176.619C78.1069 175.3 78.2069 173.831 78.8983 172.83C79.2982 172.171 80.0312 171.72 80.656 172.354C81.1392 172.847 81.0726 173.623 80.9892 174.265C81.0142 174.249 81.0392 174.24 81.0559 174.215C81.6224 172.262 81.8056 169.892 83.2052 168.373C83.8383 167.747 84.588 167.656 85.0046 168.524C85.521 169.567 85.0379 171.077 84.7963 172.121C85.4627 171.361 88.8116 167.322 90.0945 167.013C91.2441 166.754 91.1275 167.747 90.7776 168.532C90.4194 169.358 89.8113 170.068 89.1532 170.719C94.7846 169.425 100.274 170.201 101.566 173.564C104.231 180.475 84.9546 184.022 84.9546 184.022L80.6977 190.573C78.2652 188.795 76.0409 186.725 74.0166 184.497L74.0249 184.514Z" fill="#FFF3DB"/>
<path d="M51.1327 188.937C51.1327 188.937 56.0727 178.789 58.5469 180.274C61.0127 181.76 56.5726 188.937 56.5726 188.937C56.5726 188.937 67.194 181.368 68.6768 184.531C70.1596 187.702 62.254 191.908 62.254 191.908C62.254 191.908 79.2982 195.372 83.4968 196.857C87.6954 198.343 93.8683 203.292 86.2125 206.755L83.9883 218.381C83.9883 218.381 103.998 215.41 106.222 225.808C108.447 236.199 104.248 242.633 102.274 242.633C100.299 242.633 98.8166 239.662 98.8166 239.662C98.8166 239.662 99.8663 248.625 96.0925 249.627C93.585 250.294 92.1439 244.853 92.1439 244.853C92.1439 244.853 90.636 255.16 86.4625 255.001C84.2382 254.918 83.4468 248.583 83.4468 248.583C83.4468 248.583 77.3239 256.737 73.8667 255.001C70.4095 253.274 64.9697 244.853 64.9697 244.853C64.9697 244.853 72.8754 263.906 71.8924 272.319C70.901 280.731 67.4439 280.981 64.4782 278.01C64.4782 278.01 65.9611 292.857 60.5296 304.983H0C0 304.983 38.5286 207.982 42.4856 197.091C42.4856 197.091 39.9532 182.411 44.2184 181.251C48.417 180.107 51.1327 188.92 51.1327 188.92V188.937Z" fill="#FFF3DB"/>
<path d="M50.6164 296.012C51.3161 289.235 49.4501 271.467 60.6463 275.907C59.2468 271 55.5147 259.775 64.6116 262.813C62.5123 259.074 54.3484 245.279 58.547 241.54C61.521 238.861 65.628 244.611 68.577 249.877C66.561 247.34 64.9615 244.861 64.9615 244.861C64.9615 244.861 72.8672 263.914 71.8842 272.327C70.8929 280.739 67.4357 280.99 64.47 278.019C64.47 278.019 65.9529 292.866 60.5214 304.992H30.4648C30.9813 302.146 32.0226 299.459 33.822 297.172C37.7874 292.031 46.1929 290.863 50.6247 296.003L50.6164 296.012Z" fill="#EFDCBD"/>
<path d="M98.8501 174.683C97.7089 178.589 84.48 182.185 84.48 182.185L72.9839 197.617C72.9839 197.617 79.0985 180.082 80.1898 178.346C81.2811 176.611 100.266 169.784 98.8418 174.674L98.8501 174.683Z" fill="#FEB8AC"/>
<path d="M29.8482 177.378C30.5397 177.428 30.9978 178.063 31.356 178.597C31.356 178.572 31.3727 178.547 31.381 178.513C30.523 176.669 29.0985 174.766 29.1568 172.697C29.2234 171.812 29.7233 171.244 30.6063 171.62C31.6809 172.062 32.314 173.523 32.8139 174.466C32.8139 173.456 32.6889 168.207 33.447 167.13C34.1384 166.179 34.7132 167.005 34.9632 167.823C35.2381 168.682 35.2464 169.617 35.1797 170.543C38.5619 165.853 43.2104 162.815 46.3926 164.493C52.9404 167.94 40.7695 183.321 40.7695 183.321L43.227 200.563L40.5196 204.702C40.5196 204.702 32.3974 193.519 30.9812 184.456C30.8645 183.704 30.8312 182.937 30.8479 182.16C29.8649 181.267 28.9735 180.099 28.8319 178.889C28.7069 178.13 28.9569 177.312 29.8399 177.37L29.8482 177.378Z" fill="#FFF3DB"/>
<path d="M45.068 167.122C46.7758 170.81 39.1867 182.244 39.1867 182.244L41.6525 200.588C41.6525 200.588 33.7635 184.205 33.447 182.177C33.1304 180.149 42.9271 162.481 45.0764 167.113L45.068 167.122Z" fill="#FEB8AC"/>
<path d="M66.7442 210.569C66.2944 211.312 65.6529 211.754 64.8532 211.888C62.5789 212.272 60.1714 209.985 57.7139 205.053C57.5973 204.81 57.6889 204.527 57.9305 204.41C58.1638 204.285 58.4553 204.385 58.572 204.627C61.3793 210.244 63.462 211.153 64.6949 210.945C65.2197 210.861 65.6196 210.577 65.9195 210.077C66.7859 208.641 66.5693 205.837 66.0778 204.36C66.0111 204.151 66.0861 203.918 66.2777 203.801C66.461 203.684 66.7025 203.709 66.8692 203.859C67.9771 204.902 68.9518 206.154 69.8598 207.69C70.0098 207.948 70.168 208.216 70.3263 208.491C71.1261 209.885 72.0258 211.47 73.342 212.196C73.8002 212.447 74.2333 212.497 74.6249 212.338C75.0914 212.146 75.4829 211.671 75.6912 211.011C76.1744 209.626 75.6912 208.14 75.2247 206.697L75.1247 206.379C75.0581 206.179 75.133 205.954 75.3163 205.829C75.4913 205.712 75.7245 205.72 75.8911 205.862C76.166 206.096 76.4409 206.329 76.7158 206.571C77.9987 207.681 79.3233 208.833 80.8478 209.376C81.5892 209.618 82.139 209.601 82.4639 209.325C82.9471 208.917 83.097 207.832 82.8804 206.371C82.8388 206.112 83.022 205.862 83.2886 205.82C83.5469 205.77 83.7968 205.962 83.8384 206.229C84.0384 207.523 84.0634 209.242 83.097 210.068C82.4972 210.577 81.6475 210.652 80.5479 210.302C79.0317 209.759 77.7571 208.741 76.5492 207.698C76.8658 208.866 77.0407 210.102 76.6242 211.32C76.3326 212.246 75.7412 212.947 74.9997 213.24C74.7332 213.348 74.4583 213.398 74.175 213.398C73.7585 213.398 73.3253 213.281 72.9005 213.048C71.351 212.18 70.3763 210.477 69.5099 208.975C69.36 208.7 69.2017 208.441 69.0601 208.19C68.5353 207.298 67.9855 206.513 67.4023 205.812C67.6022 207.406 67.5273 209.351 66.7775 210.586L66.7442 210.569Z" fill="#EFDCBD"/>
<path d="M57.3474 222.57C57.4057 222.311 57.6556 222.153 57.9222 222.203C58.1804 222.261 58.3471 222.52 58.2887 222.779C58.0138 224.039 58.0722 225.391 58.472 226.91C59.2801 229.814 60.1465 230.457 60.7213 230.482C61.8792 230.482 62.2457 228.095 62.329 227.352C62.4873 226.259 62.3624 225.241 61.9542 224.331C61.8542 224.139 61.7792 223.989 61.7292 223.88C61.6293 223.647 61.7293 223.371 61.9542 223.254C62.1874 223.138 62.4623 223.229 62.5873 223.455C62.6789 223.622 62.7622 223.78 62.8372 223.955C63.3537 224.907 64.3367 226.234 65.1531 226.492C65.3697 226.559 65.5446 226.543 65.7112 226.442C65.9112 226.326 66.0111 226.167 66.0445 225.942C66.1944 224.79 64.495 222.537 63.5953 221.635C63.4037 221.443 63.4037 221.143 63.5953 220.951C63.7869 220.759 64.0868 220.759 64.2784 220.951C64.3117 220.984 67.2607 224.039 67.0025 226.059C66.9358 226.584 66.6609 227.002 66.2111 227.269C65.8112 227.511 65.3447 227.561 64.8699 227.41C64.3284 227.235 63.8119 226.826 63.3537 226.334C63.3537 226.709 63.337 227.085 63.2787 227.477C62.9788 230.039 62.0708 231.45 60.6963 231.45C58.6969 231.366 57.8222 228.212 57.539 227.168C57.1058 225.491 57.0392 223.989 57.3474 222.578V222.57Z" fill="#EFDCBD"/>
<path d="M38.6953 265.016C38.9368 265.116 39.0535 265.4 38.9535 265.65C38.5036 266.727 38.7536 268.913 39.495 270.507C39.9365 271.442 40.4863 272.06 41.0361 272.227C41.7192 272.41 42.3107 272.243 42.8522 271.734C44.0601 270.574 44.6182 267.895 44.2934 266.368C44.235 266.109 44.4017 265.859 44.6516 265.801C44.9098 265.734 45.1681 265.901 45.2264 266.151C45.8845 268.805 47.0424 271.25 47.6506 271.275C47.7838 271.275 48.1087 271 48.4669 269.973C49.5499 266.71 49.5499 261.978 48.4669 258.707C48.392 258.49 48.4836 258.248 48.6835 258.139C48.8835 258.022 49.1334 258.064 49.2833 258.239C50.5496 259.692 53.0487 261.845 54.3899 260.751C54.8065 260.418 55.0147 259.984 55.0231 259.416C55.0731 257.522 52.9154 254.768 51.7992 253.774C51.5992 253.599 51.5826 253.29 51.7575 253.098C51.9324 252.898 52.2407 252.881 52.4406 253.057C53.5736 254.067 56.0477 257.079 55.9811 259.441C55.9561 260.292 55.6229 260.993 54.9897 261.494C53.3903 262.804 51.2327 261.402 49.8332 260.159C50.4996 263.414 50.3413 267.328 49.3666 270.274C49.2 270.758 48.6919 272.235 47.6422 272.235C47.6256 272.235 47.6089 272.235 47.5922 272.235C46.5759 272.193 45.7179 270.616 45.1264 269.08C44.8682 270.341 44.335 271.617 43.4936 272.427C42.9188 272.978 42.2607 273.253 41.536 273.253C41.2777 273.253 41.0195 273.22 40.7529 273.153C39.9115 272.894 39.1701 272.118 38.6036 270.916C37.7289 269.047 37.4873 266.618 38.0371 265.283C38.1371 265.033 38.4287 264.924 38.6703 265.024L38.6953 265.016Z" fill="#EFDCBD"/>
<path d="M31.2977 237.951C31.4977 237.776 31.7975 237.784 31.9808 237.985C32.1558 238.176 32.1474 238.485 31.9475 238.66C30.2897 240.171 29.3234 242.808 30.5563 244.594C31.0395 245.195 31.6476 245.496 32.2557 245.446C32.9138 245.387 33.522 244.928 33.9302 244.177C34.0385 243.985 34.2551 243.893 34.4716 243.935C34.6882 243.993 34.8382 244.185 34.8382 244.402C34.8382 246.756 35.2797 248.867 35.8045 249.093C36.0878 249.193 36.246 249.134 36.3377 249.076C37.0208 248.659 37.2707 246.797 37.379 246.005L37.4123 245.788C37.4456 245.521 37.6789 245.337 37.9538 245.379C38.2121 245.412 38.3953 245.663 38.362 245.921L38.3287 246.138C38.1787 247.231 37.9038 249.259 36.8292 249.91C36.6542 250.019 36.4043 250.119 36.0794 250.119C35.8962 250.119 35.6796 250.086 35.4463 250.002C34.3633 249.535 34.0218 247.315 33.9135 245.729C33.4553 246.13 32.9138 246.364 32.339 246.414C31.3894 246.489 30.498 246.063 29.7816 245.17C28.1738 242.842 29.365 239.712 31.2977 237.951Z" fill="#EFDCBD"/>
<path d="M42.3191 223.955C42.0108 224.122 41.6859 224.206 41.361 224.206C41.0362 224.206 40.7029 224.122 40.378 223.955C39.8782 223.705 39.52 223.254 39.3367 222.628C38.8952 221.176 39.4617 218.965 40.0198 217.988C40.1531 217.755 40.4447 217.671 40.6779 217.805C40.9112 217.938 40.9945 218.23 40.8529 218.464C40.453 219.173 39.8865 221.135 40.2614 222.353C40.3697 222.72 40.553 222.962 40.8196 223.096C41.2028 223.279 41.536 223.288 41.8692 223.104C42.9355 222.52 43.6936 220.242 43.8102 219.132C43.8352 218.873 44.0601 218.689 44.3434 218.706C44.6099 218.731 44.7932 218.973 44.7682 219.24C44.6433 220.367 43.8519 223.113 42.3274 223.947L42.3191 223.955Z" fill="#EFDCBD"/>
<path d="M40.828 216.152C40.828 216.152 40.7697 216.152 40.7447 216.152C40.0449 216.152 39.4284 215.768 39.0452 215.067C38.0872 213.148 40.703 209.242 41.861 208.082C42.0526 207.898 42.3525 207.898 42.5441 208.082C42.7273 208.274 42.7273 208.574 42.5441 208.766C41.3028 210.01 39.2952 213.415 39.8949 214.617C40.1115 215.009 40.4198 215.209 40.7863 215.184C41.3445 215.159 41.9443 214.683 42.2442 214.016C42.3525 213.774 42.6357 213.665 42.8773 213.774C43.1189 213.882 43.2272 214.166 43.1189 214.408C42.6773 215.41 41.7527 216.111 40.828 216.152Z" fill="#EFDCBD"/>
<path d="M53.4569 281.757C53.6735 281.916 53.7151 282.216 53.5652 282.433C52.3822 284.061 50.2413 290.02 52.3323 291.555C52.6238 291.755 52.8987 291.781 53.2153 291.647C53.8984 291.338 54.5648 290.287 54.8314 289.394C54.8814 289.168 54.923 288.976 54.9564 288.818C55.0064 288.567 55.2396 288.384 55.4979 288.426C55.7561 288.467 55.931 288.701 55.906 288.96C55.8894 289.143 55.8394 289.36 55.7811 289.586C55.7311 289.819 55.6645 290.07 55.6061 290.353C55.148 292.281 54.19 296.304 55.2146 297.022C55.7311 297.355 56.0727 297.239 56.2809 297.122C57.8804 296.237 58.8051 291.163 58.8051 289.719C58.8051 289.452 59.0217 289.235 59.2882 289.235C59.5548 289.235 59.7714 289.452 59.7714 289.719C59.7714 290.837 58.9467 296.755 56.7474 297.965C56.5142 298.09 56.2143 298.198 55.8561 298.198C55.4979 298.198 55.1146 298.098 54.6815 297.823C53.5152 297.005 53.6818 294.793 54.2233 292.156C54.04 292.315 53.8401 292.448 53.6235 292.54C52.9987 292.824 52.3656 292.765 51.7908 292.356C49.0167 290.32 51.4909 283.71 52.8071 281.883C52.9654 281.666 53.2653 281.616 53.4819 281.774L53.4569 281.757Z" fill="#FFF3DB"/>
<path d="M20.993 272.335L21.0846 272.152C21.2012 271.91 21.4928 271.818 21.7344 271.935C21.9676 272.051 22.0676 272.344 21.951 272.577L21.8593 272.761C20.743 274.989 18.4272 279.638 19.835 281.899C20.0433 282.208 20.3515 282.559 20.6431 282.517C21.2012 282.433 22.0009 281.115 22.5008 279.454C22.5758 279.195 22.8507 279.053 23.1006 279.129C23.3588 279.204 23.5004 279.471 23.4255 279.729C23.1839 280.547 22.2675 283.251 20.793 283.468C20.7264 283.477 20.6514 283.485 20.5848 283.485C20.0266 283.485 19.5018 283.134 19.027 282.417C17.3275 279.688 19.8017 274.714 21.0013 272.327L20.993 272.335Z" fill="#EFDCBD"/>
<path d="M26.1248 279.93C26.383 279.996 26.5413 280.255 26.4747 280.514C25.45 284.62 25.3417 287.866 26.2247 288.409C26.6579 288.676 27.5743 288.259 28.7489 287.257C28.9488 287.09 29.2571 287.107 29.432 287.316C29.6069 287.516 29.5819 287.825 29.3737 287.992C28.2241 288.968 27.2911 289.452 26.533 289.452C26.2331 289.452 25.9665 289.377 25.7166 289.227C23.8339 288.058 24.9668 282.575 25.5416 280.272C25.6083 280.013 25.8665 279.855 26.1248 279.921V279.93Z" fill="#EFDCBD"/>
<path d="M79.773 229.222C80.8976 233.828 87.4788 236.182 94.4681 234.471C101.457 232.76 106.214 227.628 105.089 223.021C103.965 218.414 97.3837 216.06 90.3944 217.771C83.4051 219.482 78.6484 224.615 79.773 229.222Z" fill="#593A42"/>
<path d="M98.3835 218.748C100.624 219.299 102.674 221.11 103.157 223.413C103.424 224.682 101.441 224.924 101.174 223.672C100.883 222.311 99.4082 221.051 98.092 220.734C96.8507 220.434 97.1173 218.447 98.3752 218.748H98.3835Z" fill="#936170"/>
<path d="M103.39 225.207C103.657 225.908 103.632 226.643 103.298 227.319C102.732 228.47 100.891 227.678 101.466 226.518C101.574 226.301 101.624 226.184 101.541 225.958C101.083 224.748 102.94 223.997 103.39 225.207Z" fill="#936170"/>
<path d="M79.6064 215.668C79.6064 217.246 80.4645 218.514 81.5225 218.514C82.5804 218.514 83.4385 217.237 83.4385 215.668C83.4385 214.099 82.5804 212.814 81.5225 212.814C80.4645 212.814 79.6064 214.091 79.6064 215.668Z" fill="#593A42"/>
<path d="M67.3438 215.668C67.3438 217.246 68.2018 218.514 69.2598 218.514C70.3177 218.514 71.1758 217.237 71.1758 215.668C71.1758 214.099 70.3177 212.814 69.2598 212.814C68.2018 212.814 67.3438 214.091 67.3438 215.668Z" fill="#593A42"/>
</g>
<defs>
<clipPath id="clip0_201_31">
<rect width="592" height="305" rx="30" fill="white"/>
</clipPath>
</defs>
</svg>
