<!-- icon666.com - MILLIONS vector ICONS FREE --><svg version="1.1" id="Layer_1" xmlns="http://www.w3.org/2000/svg" xmlns:xlink="http://www.w3.org/1999/xlink" x="0px" y="0px" viewBox="0 0 511.999 511.999" style="enable-background:new 0 0 511.999 511.999;" xml:space="preserve"><g><path style="fill:#145587;" d="M315.52,92.313H282.1c-4.615,0-8.355-3.741-8.355-8.355c0-4.614,3.74-8.355,8.355-8.355h33.419 c4.614,0,8.355,3.741,8.355,8.355S320.135,92.313,315.52,92.313z"/><path style="fill:#145587;" d="M50.086,280.791c-4.614,0-8.355-3.741-8.355-8.355V205c0-4.614,3.741-8.355,8.355-8.355 s8.355,3.741,8.355,8.355v67.436C58.44,277.05,54.7,280.791,50.086,280.791z M50.086,145.919c-4.614,0-8.355-3.741-8.355-8.355 v-16.562c0-21.58,15.341-40.304,36.477-44.521c4.523-0.906,8.925,2.033,9.828,6.558c0.902,4.525-2.033,8.925-6.559,9.829 c-13.349,2.664-23.036,14.495-23.036,28.135v16.562C58.44,142.178,54.7,145.919,50.086,145.919z M214.664,92.313h-67.436 c-4.614,0-8.355-3.741-8.355-8.355c0-4.614,3.741-8.355,8.355-8.355h67.436c4.614,0,8.355,3.741,8.355,8.355 S219.278,92.313,214.664,92.313z"/><path style="fill:#145587;" d="M50.086,381.686c-4.614,0-8.355-3.741-8.355-8.355v-33.419c0-4.614,3.741-8.355,8.355-8.355 s8.355,3.741,8.355,8.355v33.419C58.44,377.945,54.7,381.686,50.086,381.686z"/><path style="fill:#145587;" d="M172.087,470.267h-33.419c-4.614,0-8.355-3.741-8.355-8.355c0-4.614,3.741-8.355,8.355-8.355h33.419 c4.614,0,8.355,3.741,8.355,8.355C180.442,466.527,176.701,470.267,172.087,470.267z"/><path style="fill:#145587;" d="M390.996,470.267h-16.599c-4.615,0-8.355-3.741-8.355-8.355c0-4.614,3.74-8.355,8.355-8.355h16.599 c13.624,0,25.454-9.676,28.129-23.007c0.907-4.524,5.315-7.455,9.835-6.548c4.523,0.908,7.455,5.311,6.548,9.835 C431.273,454.947,412.553,470.267,390.996,470.267z M306.96,470.267h-67.436c-4.614,0-8.355-3.741-8.355-8.355 c0-4.614,3.741-8.355,8.355-8.355h67.436c4.615,0,8.355,3.741,8.355,8.355C315.315,466.527,311.574,470.267,306.96,470.267z M428.041,373.164c-4.615,0-8.355-3.741-8.355-8.355v-67.436c0-4.614,3.74-8.355,8.355-8.355s8.355,3.741,8.355,8.355v67.436 C436.396,369.423,432.656,373.164,428.041,373.164z"/><path style="fill:#145587;" d="M428.041,238.253c-4.615,0-8.355-3.741-8.355-8.355v-33.419c0-4.614,3.74-8.355,8.355-8.355 s8.355,3.741,8.355,8.355v33.419C436.396,234.512,432.656,238.253,428.041,238.253z"/></g><rect x="149.589" y="132.916" transform="matrix(-0.7071 -0.7071 0.7071 -0.7071 191.1935 644.8749)" style="fill:#1F84CE;" width="159.131" height="299.848"/><path style="fill:#FB7686;" d="M504.19,82.621L429.377,7.81c-10.412-10.412-27.295-10.412-37.708,0l-58.631,58.631l112.521,112.52 l58.632-58.631C514.602,109.916,514.602,93.034,504.19,82.621z"/><g><rect x="282.678" y="111.491" transform="matrix(-0.7071 -0.7071 0.7071 -0.7071 512.4865 511.8138)" style="fill:#F9C526;" width="159.131" height="76.552"/><path style="fill:#F9C526;" d="M1.127,492.078L66.88,332.599l112.52,112.52L19.92,510.872 C8.086,515.751-3.753,503.913,1.127,492.078z"/></g><path style="opacity:0.4;fill:#145587;enable-background:new ;" d="M161.978,358.374c-2.138,0-4.277-0.815-5.907-2.447 c-3.263-3.263-3.263-8.552,0-11.815l134.346-134.346c3.265-3.264,8.554-3.262,11.816,0c3.263,3.263,3.263,8.552,0,11.815 L167.886,355.927C166.255,357.559,164.117,358.374,161.978,358.374z"/><rect x="282.667" y="141.413" transform="matrix(-0.7071 -0.7071 0.7071 -0.7071 512.4675 511.806)" style="opacity:0.3;fill:#E28922;enable-background:new ;" width="159.131" height="16.71"/><path style="fill:#384148;" d="M19.744,446.921L1.127,492.078c-4.879,11.835,6.959,23.673,18.794,18.794l45.159-18.618 L19.744,446.921z"/></svg>
