<!-- icon666.com - MILLIONS vector ICONS FREE --><svg fill="#fff" viewBox="-27 0 448 448" xmlns="http://www.w3.org/2000/svg"><path d="m341.332031 448h-224v-138.667969h21.335938v117.335938h202.664062c17.601563 0 32-14.402344 32-32v-341.335938c0-17.597656-14.398437-32-32-32h-202.664062v117.335938h-21.335938v-138.667969h224c29.46875 0 53.335938 23.867188 53.335938 53.332031v341.335938c0 29.464843-23.867188 53.332031-53.335938 53.332031zm0 0"/><path d="m203.867188 312.535156-15.066407-15.070312 73.464844-73.464844-73.464844-73.464844 15.066407-15.070312 88.53125 88.535156zm0 0"/><path d="m0 213.332031h277.332031v21.335938h-277.332031zm0 0"/></svg>
