<!-- icon666.com - MILLIONS vector ICONS FREE --><svg viewBox="-79 0 512 512.00067" xmlns="http://www.w3.org/2000/svg"><path d="m353.929688 86.835938-.050782.003906c-.277344-23.207032-14.441406-45.332032-43.144531-61.902344-63.980469-36.9375-175.738281-32.304688-249.617187 10.347656-41.382813 23.890625-62.089844 54.644532-61.0664068 83.566406h-.0078124v69.074219l.0078124-.003906c.4062498 11.421875 4.2070308 22.554687 11.4570308 32.871094l13.121094 214.074219h.046875c-.742187 20.839843 11.449219 40.835937 37.136719 55.664062 55.078125 31.800781 151.28125 27.8125 214.878906-8.90625 35.890625-20.722656 53.714844-47.4375 52.546875-72.496094l.0625-.011718 12.050781-214.078126c8.992188-13.695312 13.222657-27.886718 12.464844-41.640624l.113282-.007813zm0 0" fill="#0d68be"/><path d="m353.929688 86.835938-.050782.003906c-.277344-23.207032-14.441406-45.332032-43.144531-61.902344-63.980469-36.9375-175.738281-32.304688-249.617187 10.347656-41.382813 23.890625-62.089844 54.644532-61.0664068 83.566406h-.0078124v69.074219l.0078124-.003906c.8085938 22.710937 15.0078128 44.292969 43.1445308 60.539063 63.980469 36.9375 175.738282 32.304687 249.621094-10.347657 41.925782-24.207031 62.617188-55.457031 61-84.714843l.113282-.007813zm0 0" fill="#33aeff"/><path d="m292.8125 169.054688c-73.878906 42.65625-185.636719 47.289062-249.617188 10.347656-63.984374-36.9375-55.957031-101.460938 17.921876-144.117188 73.878906-42.652344 185.636718-47.285156 249.617187-10.347656 63.980469 36.941406 55.957031 101.464844-17.921875 144.117188zm0 0" fill="#63dcff"/><g fill="#0a4e8f"><path d="m72.707031 454.765625c-10.019531 0-18.144531-8.121094-18.144531-18.140625v-145.085938c0-10.019531 8.125-18.140624 18.144531-18.140624s18.140625 8.121093 18.140625 18.140624v145.085938c0 10.019531-8.121094 18.140625-18.140625 18.140625zm0 0"/><path d="m176.964844 480.515625c-10.019532 0-18.140625-8.121094-18.140625-18.140625v-145.085938c0-10.019531 8.121093-18.140624 18.140625-18.140624 10.019531 0 18.140625 8.121093 18.140625 18.140624v145.085938c0 10.019531-8.121094 18.140625-18.140625 18.140625zm0 0"/><path d="m282.304688 443.0625c-10.019532 0-18.140626-8.125-18.140626-18.144531v-145.082031c0-10.019532 8.121094-18.144532 18.140626-18.144532 10.019531 0 18.140624 8.125 18.140624 18.144532v145.082031c0 10.019531-8.121093 18.144531-18.140624 18.144531zm0 0"/></g><path d="m253.433594 55.789062c0-5.09375-2.609375-9.269531-6.332032-11.722656-.476562-.3125-.96875-.597656-1.476562-.851562l-32.972656-19.023438c-4.242188-3.042968-10.101563-3.765625-15.261719-.785156l-87.097656 50.285156c-12.035157 6.945313-19.445313 19.785156-19.445313 33.679688v20.507812l34.925782 20.1875 13.167968-7.601562v-17.792969c0-5.929687 3.164063-11.410156 8.296875-14.375l71.277344-41.148437 23.691406 13.695312 11.222657-6.480469v-18.574219zm0 0" fill="#33aeff"/><path d="m253.433594 55.789062v18.574219l-11.226563 6.480469v-18.773438c0-3.820312-4.136719-6.210937-7.449219-4.300781l-87.519531 50.53125c-5.132812 2.964844-8.296875 8.441407-8.296875 14.371094v17.792969l-13.167968 7.601562v-20.503906c0-13.894531 7.410156-26.734375 19.441406-33.679688l87.097656-50.285156c9.386719-5.417968 21.121094 1.355469 21.121094 12.191406zm0 0" fill="#0d68be"/></svg>
